<svg fill="none" height="25" viewBox="0 0 24 25" width="24" xmlns="http://www.w3.org/2000/svg"><g fill="#4d4d4d"><path d="m12 23.25c-5.93 0-10.75-4.82-10.75-10.75s4.82-10.75 10.75-10.75 10.75 4.82 10.75 10.75-4.82 10.75-10.75 10.75zm0-20c-5.1 0-9.25 4.15-9.25 9.25s4.15 9.25 9.25 9.25 9.25-4.15 9.25-9.25-4.15-9.25-9.25-9.25z"/><path d="m12 15.75c-.41 0-.75-.34-.75-.75v-6c0-.41.34-.75.75-.75s.75.34.75.75v6c0 .41-.34.75-.75.75z"/><path d="m12.0004 16.7499c-.19 0-.38-.07-.53-.22l-2.99997-3c-.29-.29-.29-.77 0-1.06s.77-.29 1.06 0l2.46997 2.47 2.47-2.47c.29-.29.77-.29 1.06 0s.29.77 0 1.06l-3 3c-.15.15-.34.22-.53.22z"/></g></svg>