<svg fill="none" height="34" viewBox="0 0 131 34" width="131" xmlns="http://www.w3.org/2000/svg"><rect fill="#e63b2a" height="34" rx="8" width="34"/><path d="m11.5537 11.4066 9.02-3.01004c4.05-1.34999 6.25.86 4.91 4.90994l-3.01 9.02c-2.02 6.07-5.34 6.07-7.36 0l-.89-2.68-2.68-.89c-6.05994-2.01-6.05994-5.32.01-7.3499z" fill="#fff"/><g fill="#000"><path d="m50.3022 27.8159c-1.8272 0-3.3776-.2861-4.6511-.8582-1.2551-.5722-2.2056-1.3658-2.8516-2.3809-.6275-1.0152-.9413-2.1779-.9413-3.4884h4.402c0 .7752.3137 1.4581.9413 2.0487.6459.5722 1.6795.8583 3.1007.8583 1.2551 0 2.2148-.24 2.8793-.7198.6644-.4984.9966-1.1351.9966-1.9103 0-.646-.2768-1.1536-.8305-1.5227-.5537-.3876-1.4489-.6368-2.6855-.7475l-1.5227-.1384c-2.0118-.1661-3.6175-.7844-4.8172-1.8549-1.1997-1.089-1.7995-2.5378-1.7995-4.3466 0-1.292.3045-2.4086.9136-3.34992.6275-.9413 1.495-1.66111 2.6024-2.15945 1.1074-.51679 2.4178-.77518 3.9313-.77518 1.5873 0 2.9438.27685 4.0697.83055 1.1443.55371 2.021 1.32889 2.6301 2.32556.6091.97824.9136 2.12254.9136 3.43294h-4.4296c0-.7382-.2677-1.3842-.8029-1.9379s-1.3289-.8306-2.3809-.8306c-1.0151 0-1.7719.2492-2.2702.7475-.4983.4799-.7475 1.052-.7475 1.7165 0 .5721.1938 1.0705.5814 1.495.406.4245 1.0797.6737 2.021.7475l1.5504.1384c1.4765.1292 2.7777.4522 3.9036.969 1.1258.4983 2.0025 1.1905 2.6301 2.0764.646.8675.969 1.9287.969 3.1838 0 1.292-.3415 2.427-1.0244 3.4053-.6644.9597-1.615 1.7072-2.8516 2.2425-1.2366.5352-2.7131.8028-4.4296.8028z"/><path d="m67.6052 27.8159c-1.292 0-2.4363-.2215-3.4329-.6644-.9783-.443-1.7996-1.0336-2.464-1.7719-.6645-.7567-1.1628-1.5965-1.495-2.5193-.3322-.9413-.4984-1.9011-.4984-2.8793v-.5537c0-.9967.1662-1.9656.4984-2.9069s.8305-1.7811 1.495-2.5194c.6644-.7383 1.4673-1.3196 2.4086-1.7441.9597-.443 2.0671-.6645 3.3222-.6645 1.6242 0 2.99.3691 4.0974 1.1074 1.1259.7198 1.9841 1.6704 2.5747 2.8516.5907 1.1812.886 2.4547.886 3.8205v1.495h-11.1018c.1477 1.0336.5168 1.855 1.1074 2.464.6091.5906 1.4766.886 2.6024.886.7937 0 1.4489-.1477 1.9657-.443.5352-.3138.8951-.7106 1.0797-1.1905h4.0697c-.3322 1.5504-1.1351 2.8147-2.4086 3.7929-1.2551.9598-2.8239 1.4396-4.7065 1.4396zm-.1661-12.6244c-.9597 0-1.7442.2768-2.3532.8305-.5906.5353-.969 1.3105-1.1351 2.3256h6.8105c-.1476-1.0151-.5075-1.7903-1.0797-2.3256-.5537-.5537-1.3012-.8305-2.2425-.8305z"/><path d="m77.1019 27.2899v-15.1715h3.516v3.876c.6091-2.8978 2.3163-4.3466 5.1218-4.3466h.1938c1.7534 0 3.1007.5814 4.042 1.7441.9413 1.1444 1.4119 2.8885 1.4119 5.2325v8.6655h-4.4296v-8.9146c0-.8121-.2399-1.4766-.7198-1.9934-.4799-.5167-1.1259-.7751-1.938-.7751-.8305 0-1.5042.2676-2.021.8028-.4983.5168-.7475 1.1997-.7475 2.0487v8.8316z"/><path d="m100.588 27.7882c-1.4207 0-2.6758-.3322-3.7647-.9966-1.0705-.6829-1.9103-1.6058-2.5194-2.7685-.6091-1.1628-.9136-2.4733-.9136-3.9313v-.6368c0-1.4581.2861-2.7777.8582-3.959.5722-1.1812 1.3843-2.1133 2.4363-2.7962 1.0705-.6829 2.3164-1.0243 3.7372-1.0243 2.215 0 3.849.8397 4.901 2.5193v-7.11508h4.457v20.21018h-3.516v-3.1838c-.498 1.1997-1.237 2.1133-2.215 2.7408-.978.6276-2.132.9413-3.461.9413zm1.108-3.7098c1.015 0 1.892-.3414 2.63-1.0243s1.107-1.6519 1.107-2.907v-1.0243c0-.7937-.175-1.4673-.526-2.021-.35-.5722-.812-1.0059-1.384-1.3012-.572-.2954-1.19-.443-1.855-.443-1.126 0-2.0485.406-2.7684 1.2181-.7198.8121-1.0797 1.8734-1.0797 3.1838 0 1.3289.3599 2.381 1.0797 3.1561.7383.7752 1.6704 1.1628 2.7964 1.1628z"/><path d="m115.403 10.6234c-.83 0-1.448-.2122-1.854-.63673-.388-.44297-.582-.99667-.582-1.66111 0-.68291.194-1.23661.582-1.66112.406-.44296 1.024-.66444 1.854-.66444.831 0 1.44.22148 1.828.66444.406.42451.609.97821.609 1.66112 0 .66444-.203 1.21814-.609 1.66111-.388.42453-.997.63673-1.828.63673zm-1.716 16.6665v-11.9046h-2.021v-3.2669h6.451v15.1715z"/><path d="m128.277 27.4837c-1.532 0-2.769-.1846-3.71-.5537-.941-.3876-1.634-1.0244-2.077-1.9103-.424-.9044-.636-2.1225-.636-3.6544v-6.0077h-2.298v-3.2392h2.298v-4.09738h4.125v4.09738h4.429v3.2392h-4.429v6.1738c0 .7198.184 1.2735.553 1.6611.388.3691.933.5537 1.634.5537h2.242v3.7375z"/></g></svg>