<?xml version="1.0" standalone="no"?>
<!DOCTYPE svg PUBLIC "-//W3C//DTD SVG 1.1//EN" "http://www.w3.org/Graphics/SVG/1.1/DTD/svg11.dtd">
<svg xmlns="http://www.w3.org/2000/svg">
<defs >
<font id="SpaceGrotesk" horiz-adv-x="559" ><font-face
    font-family="Space Grotesk Light"
    units-per-em="1000"
    panose-1="0 0 0 0 0 0 0 0 0 0"
    ascent="984"
    descent="-292"
    alphabetic="0" />
<glyph unicode=" " horiz-adv-x="257" />
<glyph unicode="!" horiz-adv-x="253" d="M86 187V700H167V187H86ZM126 -14Q97 -14 78 5T58 54Q58 84 77 103T126 122Q156 122 175 103T194 54Q194 24 175 5T126 -14Z" />
<glyph unicode="&quot;" horiz-adv-x="425" d="M75 468V518H104Q140 518 140 554V586H126Q97 586 78 604T58 649Q58 678 77 696T126 714Q155 714 174 695T193 647V554Q193 468 107 468H75ZM248 468V518H277Q313 518 313 554V586H299Q270 586 251 604T231 649Q231
678 250 696T299 714Q328 714 347 695T366 647V554Q366 468 280 468H248Z" />
<glyph unicode="#" horiz-adv-x="628" d="M169 0V204H43V273H169V427H43V496H169V700H242V496H385V700H458V496H585V427H458V273H585V204H458V0H385V204H242V0H169ZM242 273H385V427H242V273Z" />
<glyph unicode="$" horiz-adv-x="613" d="M313 -14Q237 -14 177 13T83 94T48 231V252H131V231Q131 144 182 102T313 59Q395 59 438 96T481 189Q481 228 462 251T408 288T326 314L273 327Q212 343 165 366T92 426T65 523Q65 582 95 625T178 691T302 714Q373 714
429 690T518 618T551 498V456H468V498Q468 549 447 580T388 626T302 641Q233 641 191 611T149 524Q149 487 166 464T217 427T296 401L349 388Q409 375 458 353T535 292T564 191Q564 129 533 83T446 12T313 -14ZM275 -116V816H352V-116H275Z" />
<glyph unicode="%" horiz-adv-x="772" d="M135 -14L81 29L638 714L691 671L135 -14ZM579 -13Q506 -13 463 29T419 145V151Q419 224 462 266T579 309Q650 309 694 267T738 151V145Q738 72 695 30T579 -13ZM579 45Q621 45 645 72T670 142V154Q670 198 646 224T579
251Q536 251 512 225T487 154V142Q487 99 511 72T579 45ZM194 391Q121 391 78 434T35 549V555Q35 628 78 670T194 713Q266 713 309 671T353 555V549Q353 477 310 434T194 391ZM194 449Q236 449 261 476T286 546V558Q286 602 261 628T194 655Q151 655 127 629T102
558V546Q102 503 126 476T194 449Z" />
<glyph unicode="&amp;" horiz-adv-x="604" d="M250 0Q192 0 145 22T71 85T44 185Q44 229 61 262T105 316T164 349V360Q118 374 84 411T50 514Q50 574 78 616T152 679T254 700H380V632H264Q208 632 170 602T131 509Q131 467 149 440T198 401T264 388H402V495H481V388H579V319H481V0H250ZM260
68H402V319H260Q203 319 164 289T124 194Q124 130 164 99T260 68Z" />
<glyph unicode="&apos;" horiz-adv-x="251" d="M75 468V518H104Q140 518 140 554V586H126Q97 586 78 604T58 649Q58 678 77 696T126 714Q155 714 174 695T193 647V554Q193 468 107 468H75Z" />
<glyph unicode="(" horiz-adv-x="379" d="M369 -235Q273 -235 204 -201T97 -95T60 93V417Q60 533 97 605T203 711T369 745V676Q250 675 193 611T136 412V98Q136 -35 193 -100T369 -166V-235Z" />
<glyph unicode=")" horiz-adv-x="377" d="M7 -235V-166Q128 -165 184 -100T240 98V412Q240 546 184 610T7 676V745Q104 745 173 711T279 605T317 417V93Q317 -22 280 -94T173 -201T7 -235Z" />
<glyph unicode="*" horiz-adv-x="520" d="M47 460V514H132L201 505L206 516L150 558L90 619L128 656L188 596L231 541L242 546L233 615V700H287V615L278 546L289 541L332 596L392 656L430 619L370 558L314 516L319 505L388 514H473V460H388L319 468L314 458L370
415L430 355L392 317L332 377L289 433L278 428L287 359V274H233V359L242 428L231 433L188 377L128 317L90 355L150 415L206 458L201 468L132 460H47Z" />
<glyph unicode="+" horiz-adv-x="620" d="M272 140V314H100V386H272V560H348V386H520V314H348V140H272Z" />
<glyph unicode="," horiz-adv-x="251" d="M75 -125V-75H104Q140 -75 140 -39V-7H126Q97 -7 78 11T58 56Q58 85 77 103T126 121Q155 121 174 102T193 54V-39Q193 -125 107 -125H75Z" />
<glyph unicode="-" horiz-adv-x="455" d="M79 221V294H375V221H79Z" />
<glyph unicode="." horiz-adv-x="253" d="M126 -14Q97 -14 78 5T58 54Q58 84 77 103T126 122Q156 122 175 103T194 54Q194 24 175 5T126 -14Z" />
<glyph unicode="/" horiz-adv-x="370" d="M0 -200L294 700H373L79 -200H0Z" />
<glyph unicode="0" horiz-adv-x="641" d="M320 -14Q201 -14 131 56T60 268V432Q60 572 130 643T320 714Q440 714 510 643T581 432V268Q581 127 511 57T320 -14ZM320 59Q410 59 455 113T500 264V437Q500 534 454 587T320 641Q232 641 187 587T141 437V264Q141 166
186 113T320 59Z" />
<glyph unicode="1" horiz-adv-x="418" d="M257 0V646H242L106 397H18L185 700H338V0H257Z" />
<glyph unicode="2" horiz-adv-x="603" d="M53 0V73Q53 148 79 193T153 265T267 313L322 330Q367 344 401 364T454 416T473 494V498Q473 564 427 602T309 641Q233 641 185 601T137 478V464H57V477Q57 553 90 606T180 686T309 714Q381 714 436 687T523 612T554 500V491Q554
423 527 379T453 306T341 258L287 241Q236 225 203 208T152 163T135 90V73H548V0H53Z" />
<glyph unicode="3" horiz-adv-x="604" d="M303 -14Q229 -14 171 14T79 95T45 223V242H126V224Q126 147 175 103T303 59Q383 59 427 100T472 205V213Q472 259 450 287T391 329T308 343H194V444L461 615V627H62V700H547V587L286 419V407H336Q395 407 444 386T523
322T553 215V204Q553 138 522 89T435 13T303 -14Z" />
<glyph unicode="4" horiz-adv-x="625" d="M397 0V143H32V239L326 700H478V216H598V143H478V0H397ZM113 216H397V651H383L113 228V216Z" />
<glyph unicode="5" horiz-adv-x="599" d="M302 -14Q225 -14 169 15T82 97T51 219V231H132V222Q132 143 178 101T300 59Q380 59 425 104T470 227V236Q470 311 427 355T314 400Q274 400 248 388T207 357T182 321H72V700H532V627H153V385H167Q178 405 197 424T250
456T332 469Q393 469 442 441T521 361T551 237V226Q551 155 521 101T435 17T302 -14Z" />
<glyph unicode="6" horiz-adv-x="612" d="M310 -14Q238 -14 182 14T93 96T60 222V466Q60 545 91 600T178 684T313 714Q390 714 444 687T527 612T556 502H474Q474 564 434 602T313 641Q231 641 186 597T141 474V377H155Q173 407 215 432T332 458Q395 458 447 430T530
351T561 230V218Q561 147 529 95T439 15T310 -14ZM310 59Q386 59 433 102T480 219V227Q480 277 459 313T399 369T310 390Q260 390 222 370T163 313T141 227V219Q141 145 188 102T310 59Z" />
<glyph unicode="7" horiz-adv-x="564" d="M152 0V25Q152 60 158 84T181 141L448 616V627H32V700H533V604L254 104Q242 83 238 66T233 23V0H152Z" />
<glyph unicode="8" horiz-adv-x="623" d="M311 -14Q230 -14 171 10T79 79T46 184V195Q46 247 68 281T121 333T180 357V370Q153 378 125 396T78 445T59 521V532Q59 589 91 629T181 692T311 714Q385 714 441 692T530 630T563 532V521Q563 476 545 445T499 396T443
370V357Q471 352 502 334T554 281T576 195V184Q576 124 544 80T453 11T311 -14ZM311 59Q396 59 445 92T495 188V196Q495 259 446 292T311 325Q226 325 177 292T128 196V188Q128 125 177 92T311 59ZM311 398Q391 398 436 428T482 515V523Q482 580 436 610T311 641Q232
641 186 611T140 523V515Q140 459 186 429T311 398Z" />
<glyph unicode="9" horiz-adv-x="612" d="M299 -14Q222 -14 168 13T85 89T57 198H138Q138 136 179 98T299 59Q382 59 426 103T471 226V323H458Q439 293 398 268T281 242Q218 242 166 270T82 349T51 470V482Q51 554 84 605T173 685T302 714Q375 714 431 686T520
605T552 478V234Q552 156 522 101T434 16T299 -14ZM302 310Q352 310 390 330T449 387T471 473V481Q471 556 425 598T302 641Q226 641 179 599T132 481V473Q132 424 153 388T213 331T302 310Z" />
<glyph unicode=":" horiz-adv-x="253" d="M126 -14Q97 -14 78 5T58 54Q58 84 77 103T126 122Q156 122 175 103T194 54Q194 24 175 5T126 -14ZM126 367Q97 367 78 386T58 435Q58 465 77 484T126 503Q156 503 175 484T194 435Q194 405 175 386T126 367Z" />
<glyph unicode=";" horiz-adv-x="253" d="M126 367Q97 367 78 386T58 435Q58 465 77 484T126 503Q156 503 175 484T194 435Q194 405 175 386T126 367ZM76 -125V-75H105Q141 -75 141 -39V-7H127Q98 -7 79 11T59 56Q59 85 78 103T127 121Q156 121 175 102T194 54V-39Q194
-125 108 -125H76Z" />
<glyph unicode="&lt;" horiz-adv-x="620" d="M520 130L100 299V401L520 570V486L181 356V344L520 214V130Z" />
<glyph unicode="=" horiz-adv-x="620" d="M100 389V461H520V389H100ZM100 239V311H520V239H100Z" />
<glyph unicode="&gt;" horiz-adv-x="620" d="M100 130V214L440 344V356L100 486V570L520 401V299L100 130Z" />
<glyph unicode="?" horiz-adv-x="580" d="M237 187V248Q237 294 254 320T314 366L342 378Q394 400 423 430T452 516Q452 557 431 585T374 628T293 643Q248 643 210 628T148 581T124 501V466H43V501Q43 570 75 617T164 689T293 714Q364 714 418 689T503 619T534
516Q534 459 513 422T457 360T382 317L355 305Q336 297 328 284T320 247V187H237ZM280 -14Q250 -14 231 5T212 54Q212 84 231 103T280 122Q309 122 328 103T348 54Q348 24 329 5T280 -14Z" />
<glyph unicode="@" horiz-adv-x="1026" d="M532 -200Q398 -200 296 -148T135 2T77 242V263Q77 403 132 501T285 652T514 704H535Q659 704 753 654T900 510T953 287V253Q953 126 907 63T775 0H742Q701 0 680 18T659 68V78H645Q637 57 620 37T573 2T497 -12Q438
-12 391 20T318 108T291 233V251Q291 322 317 377T389 464T494 496Q539 496 568 484T614 452T641 414H655V484H732V96Q732 81 737 75T757 69H769Q825 69 849 112T874 257V285Q874 396 833 473T716 592T534 633H517Q408 633 327 591T201 466T156 260V244Q156 122
203 39T337 -87T536 -129H732V-200H532ZM512 59Q575 59 615 106T655 237V247Q655 331 615 378T512 426Q449 426 409 378T369 248V236Q369 155 409 107T512 59Z" />
<glyph unicode="A" horiz-adv-x="630" d="M25 0L241 700H389L605 0H518L464 177H166L112 0H25ZM187 253H442L322 649H308L187 253Z" />
<glyph unicode="B" horiz-adv-x="661" d="M47 0V75H145V625H47V700H398Q459 700 506 678T580 617T607 524V516Q607 467 588 436T543 387T492 361V347Q517 341 544 324T589 274T608 193V183Q608 126 581 85T506 22T397 0H47ZM229 76H388Q454 76 489 107T524 191V200Q524
253 489 284T388 315H229V76ZM229 391H391Q451 391 487 421T523 502V512Q523 563 488 593T391 624H229V391Z" />
<glyph unicode="C" horiz-adv-x="642" d="M333 -14Q208 -14 134 58T60 270V430Q60 569 134 641T333 714Q457 714 523 645T590 456V451H507V459Q507 538 465 588T333 639Q244 639 194 585T144 432V268Q144 170 194 116T333 61Q422 61 464 111T507 241V257H590V244Q590
124 524 55T333 -14Z" />
<glyph unicode="D" horiz-adv-x="663" d="M47 0V75H145V625H47V700H320Q458 700 533 630T609 415V285Q609 139 534 70T320 0H47ZM229 76H320Q422 76 474 126T526 281V418Q526 525 474 574T320 623H229V76Z" />
<glyph unicode="E" horiz-adv-x="563" d="M80 0V700H511V624H164V390H483V314H164V76H516V0H80Z" />
<glyph unicode="F" horiz-adv-x="540" d="M80 0V700H503V624H164V389H476V313H164V0H80Z" />
<glyph unicode="G" horiz-adv-x="660" d="M324 -14Q246 -14 187 18T94 114T60 270V430Q60 569 134 641T333 714Q457 714 522 646T587 464V459H504V466Q504 516 486 555T430 616T333 639Q244 639 194 585T144 432V268Q144 170 194 116T334 61Q422 61 463 111T505
244V261H293V333H587V0H511V76H497Q486 54 466 33T412 -1T324 -14Z" />
<glyph unicode="H" horiz-adv-x="656" d="M80 0V700H164V389H492V700H576V0H492V313H164V0H80Z" />
<glyph unicode="I" horiz-adv-x="244" d="M80 0V700H164V0H80Z" />
<glyph unicode="J" horiz-adv-x="594" d="M263 -14Q160 -14 101 44T41 210V264H124V210Q124 145 158 104T262 63Q332 63 361 103T390 210V624H267V700H550V624H474V210Q474 101 420 44T263 -14Z" />
<glyph unicode="K" horiz-adv-x="610" d="M80 0V700H164V395H178L474 700H586L245 354L598 0H483L178 311H164V0H80Z" />
<glyph unicode="L" horiz-adv-x="546" d="M80 0V700H164V76H518V0H80Z" />
<glyph unicode="M" horiz-adv-x="865" d="M80 0V700H240L426 53H439L625 700H785V0H704V645H690L505 0H360L175 645H161V0H80Z" />
<glyph unicode="N" horiz-adv-x="664" d="M80 0V700H243L487 53H500V700H583V0H420L177 648H163V0H80Z" />
<glyph unicode="O" horiz-adv-x="669" d="M334 -14Q209 -14 135 58T60 270V430Q60 569 134 641T334 714Q460 714 534 642T609 430V270Q609 131 535 59T334 -14ZM334 61Q425 61 475 115T525 267V433Q525 530 475 584T334 639Q244 639 194 585T144 433V267Q144 170
194 116T334 61Z" />
<glyph unicode="P" horiz-adv-x="601" d="M80 0V700H348Q411 700 460 676T539 606T568 497V484Q568 421 539 376T459 306T348 282H164V0H80ZM164 358H339Q406 358 445 391T484 486V496Q484 557 446 590T339 624H164V358Z" />
<glyph unicode="Q" horiz-adv-x="669" d="M334 -14Q209 -14 135 58T60 270V430Q60 569 134 641T334 714Q460 714 534 642T609 430V270Q609 131 535 59T334 -14ZM334 61Q425 61 475 115T525 267V433Q525 530 475 584T334 639Q244 639 194 585T144 433V267Q144 170
194 116T334 61ZM375 -162Q338 -162 316 -140T293 -78V0H375V-63Q375 -93 403 -93H469V-162H375Z" />
<glyph unicode="R" horiz-adv-x="631" d="M80 0V700H363Q428 700 477 678T555 614T583 514V503Q583 434 550 394T472 340V326Q508 325 531 303T555 235V0H472V225Q472 255 456 271T406 287H164V0H80ZM164 363H355Q424 363 461 396T499 490V497Q499 557 462 590T355
624H164V363Z" />
<glyph unicode="S" horiz-adv-x="613" d="M313 -14Q237 -14 177 13T83 94T48 231V252H131V231Q131 144 182 102T313 59Q395 59 438 96T481 189Q481 228 462 251T407 288T325 314L273 327Q212 343 165 366T92 426T65 523Q65 582 94 625T177 691T301 714Q372 714
428 690T517 618T550 498V456H467V498Q467 549 446 580T387 626T301 641Q232 641 190 611T148 524Q148 487 166 464T217 427T296 401L348 388Q409 375 457 353T535 292T564 191Q564 129 533 83T446 12T313 -14Z" />
<glyph unicode="T" horiz-adv-x="588" d="M252 0V624H27V700H561V624H336V0H252Z" />
<glyph unicode="U" horiz-adv-x="666" d="M333 -14Q255 -14 197 14T107 97T75 234V700H158V233Q158 147 204 104T333 61Q416 61 462 104T508 233V700H592V234Q592 153 560 98T470 14T333 -14Z" />
<glyph unicode="V" horiz-adv-x="619" d="M236 0L25 700H112L303 51H316L507 700H594L383 0H236Z" />
<glyph unicode="W" horiz-adv-x="875" d="M151 0L37 700H121L220 54H234L363 700H513L641 54H655L754 700H838L724 0H574L445 650H431L302 0H151Z" />
<glyph unicode="X" horiz-adv-x="638" d="M32 0L258 353L35 700H134L312 411H325L504 700H602L380 353L606 0H508L325 295H312L130 0H32Z" />
<glyph unicode="Y" horiz-adv-x="610" d="M263 0V267L14 700H110L298 364H312L500 700H596L347 267V0H263Z" />
<glyph unicode="Z" horiz-adv-x="577" d="M50 0V111L440 613V625H62V700H523V589L133 87V75H531V0H50Z" />
<glyph unicode="[" horiz-adv-x="335" d="M161 -235Q126 -235 105 -213T83 -156V666Q83 700 104 722T161 745H316V676H186Q159 676 159 646V-136Q159 -166 186 -166H316V-235H161Z" />
<glyph unicode="\" horiz-adv-x="370" d="M291 -200L-3 700H77L371 -200H291Z" />
<glyph unicode="]" horiz-adv-x="335" d="M19 -235V-166H149Q176 -166 176 -136V646Q176 676 149 676H19V745H175Q209 745 230 723T252 666V-156Q252 -190 231 -212T175 -235H19Z" />
<glyph unicode="^" horiz-adv-x="620" d="M74 424L248 700H372L546 424H452L316 646H304L169 424H74Z" />
<glyph unicode="_" horiz-adv-x="620" d="M77 -122V-49H543V-122H77Z" />
<glyph unicode="`" horiz-adv-x="280" d="M150 563L54 700H150L226 563H150Z" />
<glyph unicode="a" horiz-adv-x="575" d="M233 -14Q182 -14 140 4T74 56T50 139Q50 189 74 221T140 270T234 287H399V323Q399 375 369 405T278 435Q219 435 186 407T141 330L67 354Q79 395 105 428T174 482T279 503Q373 503 425 455T477 318V97Q477 67 505 67H550V0H481Q448
0 428 18T408 68V73H396Q385 54 367 34T316 0T233 -14ZM242 54Q312 54 355 95T399 212V223H237Q190 223 160 203T129 141Q129 100 160 77T242 54Z" />
<glyph unicode="b" horiz-adv-x="644" d="M354 -14Q278 -14 236 15T174 81H160V0H83V700H162V412H176Q188 435 210 455T267 489T354 503Q418 503 470 473T554 386T585 251V238Q585 160 554 103T470 16T354 -14ZM333 56Q409 56 456 104T504 240V249Q504 336 457
384T333 433Q258 433 210 385T161 249V240Q161 153 209 105T333 56Z" />
<glyph unicode="c" horiz-adv-x="598" d="M308 -14Q237 -14 181 16T92 104T59 239V250Q59 329 91 385T180 472T308 503Q378 503 427 477T505 408T542 316L465 300Q460 336 442 366T390 414T309 432Q260 432 222 410T161 347T138 249V240Q138 183 160 142T221 79T309
57Q382 57 420 95T468 189L546 172Q535 124 506 81T428 12T308 -14Z" />
<glyph unicode="d" horiz-adv-x="644" d="M290 -14Q227 -14 174 16T90 103T59 238V251Q59 329 90 385T173 472T290 503Q341 503 376 490T434 456T468 412H482V700H561V0H484V81H470Q450 44 408 15T290 -14ZM311 56Q387 56 434 104T482 240V249Q482 336 435 384T311
433Q236 433 188 385T139 249V240Q139 153 187 105T311 56Z" />
<glyph unicode="e" horiz-adv-x="592" d="M307 -14Q233 -14 177 17T90 106T59 238V250Q59 326 90 383T176 471T302 503Q371 503 424 474T507 389T537 260V224H138Q141 145 189 101T309 56Q372 56 406 85T458 154L526 121Q511 90 485 59T416 7T307 -14ZM139 289H457Q453
357 411 395T302 433Q235 433 192 395T139 289Z" />
<glyph unicode="f" horiz-adv-x="442" d="M179 0V420H29V489H179V614Q179 654 201 677T266 700H389V632H288Q258 632 258 602V489H412V420H258V0H179Z" />
<glyph unicode="g" horiz-adv-x="642" d="M59 242V256Q59 333 90 388T174 473T290 503Q367 503 408 474T470 408H484V489H559V-114Q559 -154 537 -177T473 -200H141V-130H452Q482 -130 482 -100V86H468Q456 64 434 43T377 9T290 -5Q227 -5 174 25T90 110T59 242ZM311
65Q387 65 434 113T482 245V253Q482 338 435 385T311 433Q236 433 188 386T139 253V245Q139 161 187 113T311 65Z" />
<glyph unicode="h" horiz-adv-x="613" d="M83 0V700H162V411H176Q186 433 206 452T259 485T342 498Q397 498 440 475T510 407T536 296V0H457V290Q457 363 421 396T322 429Q251 429 207 383T162 246V0H83Z" />
<glyph unicode="i" horiz-adv-x="245" d="M83 0V489H162V0H83ZM123 565Q97 565 80 582T62 625Q62 652 79 669T123 686Q149 686 166 669T183 625Q183 599 166 582T123 565Z" />
<glyph unicode="j" horiz-adv-x="247" d="M-13 -200V-130H55Q85 -130 85 -100V489H164V-114Q164 -154 142 -177T77 -200H-13ZM125 565Q99 565 82 582T64 625Q64 652 81 669T125 686Q151 686 168 669T185 625Q185 599 168 582T125 565Z" />
<glyph unicode="k" horiz-adv-x="538" d="M83 0V700H162V288H176L400 489H510L239 251L518 0H409L176 213H162V0H83Z" />
<glyph unicode="l" horiz-adv-x="245" d="M83 0V700H162V0H83Z" />
<glyph unicode="m" horiz-adv-x="860" d="M83 0V489H160V428H174Q188 454 220 476T310 498Q367 498 402 473T454 412H468Q485 448 519 473T616 498Q665 498 702 478T760 421T782 331V0H703V324Q703 373 675 401T595 430Q541 430 507 395T472 294V0H393V324Q393
373 365 401T285 430Q231 430 197 395T162 294V0H83Z" />
<glyph unicode="n" horiz-adv-x="613" d="M83 0V489H160V406H174Q190 441 228 469T342 498Q397 498 440 475T510 407T536 296V0H457V290Q457 363 421 396T322 429Q251 429 207 383T162 246V0H83Z" />
<glyph unicode="o" horiz-adv-x="618" d="M309 -14Q235 -14 179 17T91 104T59 238V251Q59 327 90 384T178 472T309 503Q383 503 439 472T527 384T559 251V238Q559 161 528 105T440 17T309 -14ZM309 57Q387 57 433 106T480 240V249Q480 333 434 382T309 432Q232
432 185 383T138 249V240Q138 156 185 107T309 57Z" />
<glyph unicode="p" horiz-adv-x="644" d="M83 -200V489H160V408H174Q193 445 235 474T354 503Q417 503 469 473T553 386T585 251V238Q585 160 554 103T471 16T354 -14Q303 -14 268 -1T210 34T176 77H162V-200H83ZM333 56Q409 56 456 104T504 240V249Q504 336 457
384T333 433Q258 433 210 385T161 249V240Q161 153 209 105T333 56Z" />
<glyph unicode="q" horiz-adv-x="644" d="M482 -200V77H468Q456 55 434 34T377 0T290 -14Q226 -14 174 16T90 103T59 238V251Q59 330 90 386T174 472T290 503Q366 503 408 474T470 408H484V489H561V-200H482ZM311 56Q387 56 434 104T482 240V249Q482 336 435 384T311
433Q236 433 188 385T139 249V240Q139 153 187 105T311 56Z" />
<glyph unicode="r" horiz-adv-x="377" d="M83 0V489H160V429H174Q187 461 214 476T285 491H343V419H280Q227 419 195 390T162 298V0H83Z" />
<glyph unicode="s" horiz-adv-x="527" d="M280 -14Q189 -14 127 28T51 161L126 178Q134 130 156 103T210 64T280 52Q335 52 367 74T399 133Q399 171 369 186T285 212L244 219Q197 227 158 244T96 290T73 363Q73 429 124 466T259 503Q342 503 393 466T460 360L386
341Q377 394 343 415T259 437Q209 437 180 419T151 364Q151 329 178 313T252 288L293 281Q345 272 386 257T452 212T477 136Q477 64 424 25T280 -14Z" />
<glyph unicode="t" horiz-adv-x="460" d="M263 0Q221 0 199 23T176 86V420H29V489H176V663H255V489H415V420H255V98Q255 68 284 68H393V0H263Z" />
<glyph unicode="u" horiz-adv-x="612" d="M270 -9Q217 -9 173 14T103 82T77 193V489H156V199Q156 126 192 93T291 60Q361 60 406 106T451 243V489H530V0H453V83H439Q423 48 384 20T270 -9Z" />
<glyph unicode="v" horiz-adv-x="539" d="M207 0L32 489H116L263 59H277L424 489H508L333 0H207Z" />
<glyph unicode="w" horiz-adv-x="801" d="M151 0L53 489H133L214 53H228L335 489H466L573 53H587L668 489H748L650 0H515L407 436H394L286 0H151Z" />
<glyph unicode="x" horiz-adv-x="593" d="M43 0L239 248L49 489H144L290 300H304L449 489H545L354 248L550 0H454L304 195H290L140 0H43Z" />
<glyph unicode="y" horiz-adv-x="612" d="M142 -200V-130H422Q451 -130 451 -100V78H437Q427 57 407 37T353 4T270 -9Q217 -9 173 14T103 82T77 192V489H156V198Q156 126 192 93T291 60Q361 60 406 106T451 243V489H530V-114Q530 -154 508 -177T442 -200H142Z" />
<glyph unicode="z" horiz-adv-x="521" d="M61 0V102L372 409V420H71V489H455V387L143 80V68H463V0H61Z" />
<glyph unicode="{" horiz-adv-x="432" d="M257 -235Q224 -235 202 -213T179 -156V167Q179 217 125 217H39V293H125Q179 293 179 343V666Q179 700 201 722T257 745H413V676H283Q256 676 256 646V342Q256 306 237 284T182 262H175V248H182Q217 248 236 226T256 168V-136Q256
-166 283 -166H413V-235H257Z" />
<glyph unicode="|" horiz-adv-x="240" d="M80 -246V806H159V-246H80Z" />
<glyph unicode="}" horiz-adv-x="432" d="M19 -235V-166H149Q176 -166 176 -136V168Q176 204 195 226T250 248H257V262H250Q215 262 196 284T176 342V646Q176 676 149 676H19V745H175Q208 745 230 723T252 666V343Q252 293 306 293H393V217H306Q252 217 252 167V-156Q252
-190 230 -212T175 -235H19Z" />
<glyph unicode="~" horiz-adv-x="620" d="M130 269L83 326L176 399Q194 414 213 425T256 436Q285 436 302 421T334 383Q345 366 352 357T373 348Q384 348 392 352T409 365L490 431L536 374L443 301Q426 287 407 276T363 264Q334 264 318 279T286 317Q275 335 268
343T247 352Q236 352 229 348T211 335L130 269Z" />
<glyph unicode="&#xa0;" horiz-adv-x="257" />
<glyph unicode="&#xa1;" horiz-adv-x="253" d="M86 -200V302H167V-200H86ZM126 503Q156 503 175 484T194 435Q194 405 175 386T126 367Q97 367 78 386T58 435Q58 465 77 484T126 503Z" />
<glyph unicode="&#xa2;" horiz-adv-x="599" d="M309 -14Q238 -14 182 16T93 104T60 239V250Q60 329 92 385T181 472T309 503Q379 503 428 477T506 408T543 316L466 300Q461 336 443 366T392 414T310 432Q261 432 223 410T162 347T139 249V240Q139 183 161 142T222
79T310 57Q383 57 421 95T470 189L547 172Q537 124 508 81T429 12T309 -14ZM274 -116V612H348V-116H274Z" />
<glyph unicode="&#xa3;" horiz-adv-x="628" d="M59 0V73H133V308H63V375H133V499Q133 604 190 659T346 714Q445 714 502 659T559 499V439H479V499Q479 565 445 603T346 641Q283 641 249 603T214 499V375H339V308H214V73H564V0H59Z" />
<glyph unicode="&#xa4;" horiz-adv-x="620" d="M103 91L51 143L110 202Q85 233 73 270T60 350Q60 392 72 430T110 498L51 558L103 610L162 550Q193 573 230 586T310 600Q352 600 390 587T458 550L518 610L570 558L510 498Q533 468 546 430T560 350Q560 308 547
271T510 202L570 143L518 91L458 150Q428 125 390 113T310 100Q268 100 231 112T162 150L103 91ZM310 171Q360 171 400 194T463 258T487 350Q487 403 464 443T400 506T310 530Q260 530 220 507T157 443T133 350Q133 298 156 258T220 194T310 171Z" />
<glyph unicode="&#xa5;" horiz-adv-x="620" d="M268 0V285L253 292L16 700H114L303 365H317L506 700H604L367 292L352 285V0H268ZM106 151V218H514V151H106ZM106 276V343H514V276H106Z" />
<glyph unicode="&#xa6;" horiz-adv-x="240" d="M80 366V806H159V366H80ZM80 -246V194H159V-246H80Z" />
<glyph unicode="&#xa7;" horiz-adv-x="498" d="M256 -14Q157 -14 100 39T43 184V204H117V188Q117 126 152 90T257 54Q311 54 340 80T369 148Q369 191 340 211T244 243Q153 259 110 294T66 394Q66 418 72 438T93 476Q66 511 66 560V565Q66 612 90 645T155 696T245
714Q331 714 385 672T439 552V520H365V546Q365 579 349 601T307 634T247 646Q202 646 172 626T141 564Q141 517 177 497T274 464Q358 447 401 414T445 320Q445 270 421 236Q432 218 438 199T444 156V149Q444 77 397 32T256 -14ZM361 283Q365 290 367 297T370 316Q370
351 340 369T245 400Q218 405 194 413T151 429Q141 415 141 394Q141 358 172 340T271 310Q303 304 323 298T361 283Z" />
<glyph unicode="&#xa8;" horiz-adv-x="415" d="M301 564Q276 564 259 580T242 624Q242 651 259 667T301 683Q328 683 344 667T361 624Q361 597 345 581T301 564ZM114 564Q88 564 71 580T54 624Q54 651 71 667T114 683Q140 683 157 667T174 624Q174 597 157 581T114 564Z" />
<glyph unicode="&#xa9;" horiz-adv-x="704" d="M346 -12Q260 -12 196 21T96 123T60 295V405Q60 509 95 577T195 678T346 712H359Q446 712 510 679T609 577T644 405V295Q644 191 609 123T510 22T359 -12H346ZM348 53H358Q460 53 517 111T575 295V405Q575 530 518
588T358 647H348Q245 647 188 589T130 405V295Q130 170 187 112T348 53ZM358 133Q290 133 251 173T211 291V407Q211 487 251 528T356 569Q425 569 461 529T497 424V405H428V430Q428 462 412 484T357 506Q324 506 302 485T280 422V276Q280 237 303 217T357 197Q391
197 409 216T428 275V296H497V277Q497 213 462 173T358 133Z" />
<glyph unicode="&#xaa;" horiz-adv-x="420" d="M172 340Q117 340 79 367T40 449Q40 503 78 528T172 553H284V575Q284 612 264 633T202 654Q159 654 138 635T109 587L49 603Q61 645 98 676T203 707Q269 707 307 672T346 573V424Q346 402 366 402H398V350H351Q325
350 310 362T294 399H282Q276 386 263 373T228 350T172 340ZM180 394Q229 394 256 418T284 494V503H176Q143 503 123 491T102 450Q102 423 123 409T180 394Z" />
<glyph unicode="&#xab;" horiz-adv-x="683" d="M608 20L319 201V293L608 474H614V389L392 253V241L614 106V20H608ZM340 20L52 201V293L340 474H346V389L125 253V241L346 106V20H340Z" />
<glyph unicode="&#xac;" horiz-adv-x="620" d="M448 215V314H101V386H519V215H448Z" />
<glyph unicode="&#xad;" horiz-adv-x="455" d="M79 221V294H375V221H79Z" />
<glyph unicode="&#xae;" horiz-adv-x="531" d="M266 298Q206 298 159 324T84 398T56 506Q56 567 83 614T158 687T266 714Q326 714 373 688T448 614T476 506Q476 445 449 398T374 325T266 298ZM266 337Q342 337 388 383T435 506Q435 582 389 628T266 675Q190 675
144 629T97 506Q97 430 143 384T266 337ZM194 397V619H279Q316 619 335 601T354 558Q354 538 345 524T314 502V494Q331 493 338 483T346 459V397H307V458Q307 479 286 479H233V397H194ZM233 515H280Q297 515 306 525T315 550Q315 564 306 574T280 584H233V515Z"
/>
<glyph unicode="&#xaf;" horiz-adv-x="417" d="M54 575V640H362V575H54Z" />
<glyph unicode="&#xb0;" horiz-adv-x="381" d="M191 408Q147 408 112 427T57 482T36 561Q36 606 56 640T112 694T191 714Q234 714 269 695T324 641T345 561Q345 517 325 482T269 428T191 408ZM191 474Q229 474 252 498T276 561Q276 601 253 624T191 648Q153 648
129 625T105 561Q105 522 129 498T191 474Z" />
<glyph unicode="&#xb1;" horiz-adv-x="620" d="M272 148V314H100V387H272V553H348V387H520V314H348V148H272ZM100 0V73H520V0H100Z" />
<glyph unicode="&#xb2;" horiz-adv-x="366" d="M27 350V381Q27 435 61 469T166 519Q220 531 246 548T273 596Q273 625 250 642T187 660Q148 660 122 641T93 581L30 585Q36 649 79 681T187 713Q253 713 294 682T335 596Q335 541 300 514T202 473Q148 461 123 446T94
403H333V350H27Z" />
<glyph unicode="&#xb3;" horiz-adv-x="376" d="M187 337Q123 337 77 369T27 462L90 468Q93 430 121 410T187 390Q228 390 253 409T279 458Q279 491 255 506T185 521H124V576L246 636V647H35V700H341V637L213 573V562Q274 560 308 535T342 457Q342 421 322 394T267
352T187 337Z" />
<glyph unicode="&#xb4;" horiz-adv-x="280" d="M54 555L131 691H226L130 555H54Z" />
<glyph unicode="&#xb5;" horiz-adv-x="621" d="M79 -200V489H159V198Q159 127 194 94T291 60Q358 60 401 105T444 241V489H523V97Q523 67 551 67H596V0H526Q493 0 474 18T453 69V84H440Q425 47 388 19T283 -9Q242 -9 214 4T170 36H156V-200H79Z" />
<glyph unicode="&#xb6;" horiz-adv-x="577" d="M261 0V305H246Q182 305 133 328T55 395T27 497V508Q27 568 55 611T134 677T248 700H497V0H423V631H335V0H261ZM245 373H261V631H245Q175 631 138 596T101 506V500Q101 445 138 409T245 373Z" />
<glyph unicode="&#xb7;" horiz-adv-x="187" d="M93 219Q64 219 45 238T25 287Q25 317 44 336T93 355Q123 355 142 336T161 287Q161 257 142 238T93 219Z" />
<glyph unicode="&#xb8;" horiz-adv-x="323" d="M159 -205Q129 -205 102 -197T54 -176L78 -126Q95 -136 114 -143T158 -150Q178 -150 192 -142T206 -116Q206 -100 194 -92T157 -84H120L130 21H188L182 -45Q221 -45 245 -65T269 -123Q269 -151 254 -169T214 -196T159 -205Z" />
<glyph unicode="&#xb9;" horiz-adv-x="251" d="M140 350V633H127L83 544H19L99 700H202V350H140Z" />
<glyph unicode="&#xba;" horiz-adv-x="437" d="M219 340Q138 340 89 388T39 524Q39 610 88 658T219 707Q300 707 349 659T398 524Q398 437 349 389T219 340ZM219 393Q271 393 303 428T335 524Q335 584 303 619T219 654Q167 654 135 619T103 524Q103 463 135 428T219 393Z" />
<glyph unicode="&#xbb;" horiz-adv-x="683" d="M337 20V106L558 241V253L337 389V474H343L631 293V201L343 20H337ZM69 20V106L291 241V253L69 389V474H75L364 293V201L75 20H69Z" />
<glyph unicode="&#xbc;" horiz-adv-x="815" d="M140 350V633H127L83 544H19L99 700H202V350H140ZM115 -11L68 27L624 711L671 673L115 -11ZM658 0V83H443V147L613 350H721V136H797V83H721V0H658ZM516 136H658V301H646L516 147V136Z" />
<glyph unicode="&#xbd;" horiz-adv-x="823" d="M140 350V633H127L83 544H19L99 700H202V350H140ZM115 -11L68 27L624 711L671 673L115 -11ZM484 0V31Q484 85 518 119T623 169Q677 181 703 198T730 246Q730 275 707 292T644 310Q605 310 579 291T550 231L487 235Q493
299 536 331T644 363Q710 363 751 332T792 246Q792 191 757 164T659 123Q605 111 580 96T551 53H790V0H484Z" />
<glyph unicode="&#xbe;" horiz-adv-x="895" d="M187 337Q123 337 77 369T27 462L90 468Q93 430 121 410T187 390Q228 390 253 409T279 458Q279 491 255 506T185 521H124V576L246 636V647H35V700H341V637L213 573V562Q274 560 308 535T342 457Q342 421 322 394T267
352T187 337ZM195 -11L148 27L704 711L751 673L195 -11ZM738 0V83H523V147L693 350H801V136H877V83H801V0H738ZM596 136H738V301H726L596 147V136Z" />
<glyph unicode="&#xbf;" horiz-adv-x="580" d="M287 -215Q216 -215 162 -190T77 -119T46 -17Q46 39 67 76T123 139T198 182L226 194Q245 202 252 215T260 252V302H343V251Q343 205 327 179T266 133L238 120Q187 98 158 69T128 -17Q128 -57 149 -86T206 -130T287
-145Q333 -145 371 -130T432 -82T456 -3V33H538V-3Q538 -70 505 -118T416 -190T287 -215ZM300 503Q329 503 348 484T368 435Q368 405 349 386T300 367Q270 367 251 386T232 435Q232 465 251 484T300 503Z" />
<glyph unicode="&#xc0;" horiz-adv-x="630" d="M25 0L241 700H389L605 0H518L464 177H166L112 0H25ZM187 253H442L322 649H308L187 253ZM295 761L206 882H304L371 761H295Z" />
<glyph unicode="&#xc1;" horiz-adv-x="630" d="M25 0L241 700H389L605 0H518L464 177H166L112 0H25ZM187 253H442L322 649H308L187 253ZM259 758L326 879H424L336 758H259Z" />
<glyph unicode="&#xc2;" horiz-adv-x="630" d="M25 0L241 700H389L605 0H518L464 177H166L112 0H25ZM187 253H442L322 649H308L187 253ZM140 758L267 879H362L489 758H392L321 831H308L237 758H140Z" />
<glyph unicode="&#xc3;" horiz-adv-x="630" d="M25 0L241 700H389L605 0H518L464 177H166L112 0H25ZM187 253H442L322 649H308L187 253ZM196 758L149 790L181 840Q194 859 211 871T254 884Q277 884 294 874T331 844Q344 831 353 824T374 816Q386 816 393 823T408
840L434 881L481 849L449 799Q437 781 420 768T377 755Q353 755 336 765T300 795Q287 808 278 815T257 822Q245 822 237 815T222 798L196 758Z" />
<glyph unicode="&#xc4;" horiz-adv-x="630" d="M25 0L241 700H389L605 0H518L464 177H166L112 0H25ZM187 253H442L322 649H308L187 253ZM414 760Q388 760 371 776T354 819Q354 846 371 862T414 878Q440 878 456 862T473 819Q473 793 457 777T414 760ZM216 760Q190
760 173 776T156 819Q156 846 173 862T216 878Q242 878 259 862T276 819Q276 793 259 777T216 760Z" />
<glyph unicode="&#xc5;" horiz-adv-x="630" d="M25 0L241 700H389L605 0H518L464 177H166L112 0H25ZM187 253H442L322 649H308L187 253ZM315 748Q274 748 245 774T216 844Q216 886 245 912T314 939Q356 939 385 913T414 844Q414 801 385 775T315 748ZM315 801Q335
801 346 813T358 844Q358 862 347 874T315 887Q295 887 284 875T272 844Q272 825 283 813T315 801Z" />
<glyph unicode="&#xc6;" horiz-adv-x="831" d="M388 0V700H779V624H472V390H751V314H472V76H783V0H388ZM25 0L310 700H388V653H375L214 253H388V177H185L114 0H25Z" />
<glyph unicode="&#xc7;" horiz-adv-x="642" d="M333 -14Q208 -14 134 58T60 270V430Q60 569 134 641T333 714Q457 714 523 645T590 456V451H507V459Q507 538 465 588T333 639Q244 639 194 585T144 432V268Q144 170 194 116T333 61Q422 61 464 111T507 241V257H590V244Q590
124 524 55T333 -14ZM334 -205Q304 -205 277 -197T229 -176L253 -126Q270 -136 289 -143T333 -150Q353 -150 367 -142T381 -116Q381 -100 369 -92T332 -84H295L305 21H363L357 -45Q396 -45 420 -65T444 -123Q444 -151 429 -169T389 -196T334 -205Z" />
<glyph unicode="&#xc8;" horiz-adv-x="563" d="M80 0V700H511V624H164V390H483V314H164V76H516V0H80ZM282 761L193 882H291L358 761H282Z" />
<glyph unicode="&#xc9;" horiz-adv-x="563" d="M80 0V700H511V624H164V390H483V314H164V76H516V0H80ZM245 758L312 879H410L322 758H245Z" />
<glyph unicode="&#xca;" horiz-adv-x="563" d="M80 0V700H511V624H164V390H483V314H164V76H516V0H80ZM127 758L254 879H349L476 758H379L308 831H295L224 758H127Z" />
<glyph unicode="&#xcb;" horiz-adv-x="563" d="M80 0V700H511V624H164V390H483V314H164V76H516V0H80ZM401 760Q375 760 358 776T341 819Q341 846 358 862T401 878Q427 878 443 862T460 819Q460 793 444 777T401 760ZM203 760Q177 760 160 776T143 819Q143 846
160 862T203 878Q229 878 246 862T263 819Q263 793 246 777T203 760Z" />
<glyph unicode="&#xcc;" horiz-adv-x="244" d="M80 0V700H164V0H80ZM358 761L269 882H367L434 761H358Z" />
<glyph unicode="&#xcd;" horiz-adv-x="244" d="M80 0V700H164V0H80ZM66 758L133 879H231L143 758H66Z" />
<glyph unicode="&#xce;" horiz-adv-x="244" d="M80 0V700H164V0H80ZM204 758L331 879H426L553 758H456L385 831H372L301 758H204Z" />
<glyph unicode="&#xcf;" horiz-adv-x="244" d="M80 0V700H164V0H80ZM477 760Q451 760 434 776T417 819Q417 846 434 862T477 878Q503 878 519 862T536 819Q536 793 520 777T477 760ZM279 760Q253 760 236 776T219 819Q219 846 236 862T279 878Q305 878 322 862T339
819Q339 793 322 777T279 760Z" />
<glyph unicode="&#xd0;" horiz-adv-x="663" d="M47 0V75H145V625H47V700H320Q458 700 533 630T609 415V285Q609 139 534 70T320 0H47ZM229 76H320Q422 76 474 126T526 281V418Q526 525 474 574T320 623H229V76ZM303 316V378H606V316H303Z" />
<glyph unicode="&#xd1;" horiz-adv-x="664" d="M80 0V700H243L487 53H500V700H583V0H420L177 648H163V0H80ZM215 758L168 790L200 840Q213 859 230 871T273 884Q296 884 313 874T350 844Q363 831 372 824T393 816Q405 816 412 823T427 840L453 881L500 849L468
799Q456 781 439 768T396 755Q372 755 355 765T319 795Q306 808 297 815T276 822Q264 822 256 815T241 798L215 758Z" />
<glyph unicode="&#xd2;" horiz-adv-x="669" d="M334 -14Q209 -14 135 58T60 270V430Q60 569 134 641T334 714Q460 714 534 642T609 430V270Q609 131 535 59T334 -14ZM334 61Q425 61 475 115T525 267V433Q525 530 475 584T334 639Q244 639 194 585T144 433V267Q144
170 194 116T334 61ZM314 761L225 882H323L390 761H314Z" />
<glyph unicode="&#xd3;" horiz-adv-x="669" d="M334 -14Q209 -14 135 58T60 270V430Q60 569 134 641T334 714Q460 714 534 642T609 430V270Q609 131 535 59T334 -14ZM334 61Q425 61 475 115T525 267V433Q525 530 475 584T334 639Q244 639 194 585T144 433V267Q144
170 194 116T334 61ZM278 758L345 879H443L355 758H278Z" />
<glyph unicode="&#xd4;" horiz-adv-x="669" d="M334 -14Q209 -14 135 58T60 270V430Q60 569 134 641T334 714Q460 714 534 642T609 430V270Q609 131 535 59T334 -14ZM334 61Q425 61 475 115T525 267V433Q525 530 475 584T334 639Q244 639 194 585T144 433V267Q144
170 194 116T334 61ZM160 758L287 879H382L509 758H412L341 831H328L257 758H160Z" />
<glyph unicode="&#xd5;" horiz-adv-x="669" d="M334 -14Q209 -14 135 58T60 270V430Q60 569 134 641T334 714Q460 714 534 642T609 430V270Q609 131 535 59T334 -14ZM334 61Q425 61 475 115T525 267V433Q525 530 475 584T334 639Q244 639 194 585T144 433V267Q144
170 194 116T334 61ZM215 758L168 790L200 840Q213 859 230 871T273 884Q296 884 313 874T350 844Q363 831 372 824T393 816Q405 816 412 823T427 840L453 881L500 849L468 799Q456 781 439 768T396 755Q372 755 355 765T319 795Q306 808 297 815T276 822Q264 822
256 815T241 798L215 758Z" />
<glyph unicode="&#xd6;" horiz-adv-x="669" d="M334 -14Q209 -14 135 58T60 270V430Q60 569 134 641T334 714Q460 714 534 642T609 430V270Q609 131 535 59T334 -14ZM334 61Q425 61 475 115T525 267V433Q525 530 475 584T334 639Q244 639 194 585T144 433V267Q144
170 194 116T334 61ZM434 760Q408 760 391 776T374 819Q374 846 391 862T434 878Q460 878 476 862T493 819Q493 793 477 777T434 760ZM236 760Q210 760 193 776T176 819Q176 846 193 862T236 878Q262 878 279 862T296 819Q296 793 279 777T236 760Z" />
<glyph unicode="&#xd7;" horiz-adv-x="620" d="M164 151L112 203L259 350L112 497L164 549L310 402L456 549L508 497L361 350L508 203L456 151L310 299L164 151Z" />
<glyph unicode="&#xd8;" horiz-adv-x="669" d="M334 -14Q209 -14 135 58T60 270V430Q60 569 134 641T334 714Q460 714 534 642T609 430V270Q609 131 535 59T334 -14ZM334 61Q425 61 475 115T525 267V433Q525 530 475 584T334 639Q244 639 194 585T144 433V267Q144
170 194 116T334 61ZM198 -87L140 -64L472 775L529 752L198 -87Z" />
<glyph unicode="&#xd9;" horiz-adv-x="666" d="M333 -14Q255 -14 197 14T107 97T75 234V700H158V233Q158 147 204 104T333 61Q416 61 462 104T508 233V700H592V234Q592 153 560 98T470 14T333 -14ZM313 761L224 882H322L389 761H313Z" />
<glyph unicode="&#xda;" horiz-adv-x="666" d="M333 -14Q255 -14 197 14T107 97T75 234V700H158V233Q158 147 204 104T333 61Q416 61 462 104T508 233V700H592V234Q592 153 560 98T470 14T333 -14ZM277 758L344 879H442L354 758H277Z" />
<glyph unicode="&#xdb;" horiz-adv-x="666" d="M333 -14Q255 -14 197 14T107 97T75 234V700H158V233Q158 147 204 104T333 61Q416 61 462 104T508 233V700H592V234Q592 153 560 98T470 14T333 -14ZM159 758L286 879H381L508 758H411L340 831H327L256 758H159Z" />
<glyph unicode="&#xdc;" horiz-adv-x="666" d="M333 -14Q255 -14 197 14T107 97T75 234V700H158V233Q158 147 204 104T333 61Q416 61 462 104T508 233V700H592V234Q592 153 560 98T470 14T333 -14ZM432 760Q406 760 389 776T372 819Q372 846 389 862T432 878Q458
878 474 862T491 819Q491 793 475 777T432 760ZM234 760Q208 760 191 776T174 819Q174 846 191 862T234 878Q260 878 277 862T294 819Q294 793 277 777T234 760Z" />
<glyph unicode="&#xdd;" horiz-adv-x="610" d="M263 0V267L14 700H110L298 364H312L500 700H596L347 267V0H263ZM249 758L316 879H414L326 758H249Z" />
<glyph unicode="&#xde;" horiz-adv-x="601" d="M164 152V228H339Q406 228 445 262T484 356V366Q484 427 446 460T339 494H164V570H348Q411 570 460 546T539 476T568 367V355Q568 292 539 246T459 176T348 152H164ZM80 0V700H164V0H80Z" />
<glyph unicode="&#xdf;" horiz-adv-x="628" d="M409 -14Q350 -14 306 5T236 60T201 143L274 162Q285 107 320 80T409 53Q461 53 491 77T521 146Q521 174 506 193T465 226T411 253L374 269Q337 285 319 307T301 357Q301 391 319 411T368 449Q400 468 424 493T449
558Q449 600 416 623T332 646Q293 646 254 626T188 563T161 445V0H83V441Q83 527 115 588T203 681T332 714Q391 714 434 694T502 638T527 560Q527 517 511 487T467 436T408 395Q393 388 387 380T381 362Q381 342 412 329L449 312Q489 295 523 275T578 224T599 145Q599
98 576 62T510 6T409 -14Z" />
<glyph unicode="&#xe0;" horiz-adv-x="575" d="M233 -14Q182 -14 140 4T74 56T50 139Q50 189 74 221T140 270T234 287H399V323Q399 375 369 405T278 435Q219 435 186 407T141 330L67 354Q79 395 105 428T174 482T279 503Q373 503 425 455T477 318V97Q477 67 505
67H550V0H481Q448 0 428 18T408 68V73H396Q385 54 367 34T316 0T233 -14ZM242 54Q312 54 355 95T399 212V223H237Q190 223 160 203T129 141Q129 100 160 77T242 54ZM258 563L162 700H258L334 563H258Z" />
<glyph unicode="&#xe1;" horiz-adv-x="575" d="M233 -14Q182 -14 140 4T74 56T50 139Q50 189 74 221T140 270T234 287H399V323Q399 375 369 405T278 435Q219 435 186 407T141 330L67 354Q79 395 105 428T174 482T279 503Q373 503 425 455T477 318V97Q477 67 505
67H550V0H481Q448 0 428 18T408 68V73H396Q385 54 367 34T316 0T233 -14ZM242 54Q312 54 355 95T399 212V223H237Q190 223 160 203T129 141Q129 100 160 77T242 54ZM229 555L306 691H401L305 555H229Z" />
<glyph unicode="&#xe2;" horiz-adv-x="575" d="M233 -14Q182 -14 140 4T74 56T50 139Q50 189 74 221T140 270T234 287H399V323Q399 375 369 405T278 435Q219 435 186 407T141 330L67 354Q79 395 105 428T174 482T279 503Q373 503 425 455T477 318V97Q477 67 505
67H550V0H481Q448 0 428 18T408 68V73H396Q385 54 367 34T316 0T233 -14ZM242 54Q312 54 355 95T399 212V223H237Q190 223 160 203T129 141Q129 100 160 77T242 54ZM109 555L233 691H330L453 555H364L288 639H274L199 555H109Z" />
<glyph unicode="&#xe3;" horiz-adv-x="575" d="M233 -14Q182 -14 140 4T74 56T50 139Q50 189 74 221T140 270T234 287H399V323Q399 375 369 405T278 435Q219 435 186 407T141 330L67 354Q79 395 105 428T174 482T279 503Q373 503 425 455T477 318V97Q477 67 505
67H550V0H481Q448 0 428 18T408 68V73H396Q385 54 367 34T316 0T233 -14ZM242 54Q312 54 355 95T399 212V223H237Q190 223 160 203T129 141Q129 100 160 77T242 54ZM171 546L121 575L152 631Q164 651 181 662T222 674Q243 674 258 666T292 638Q304 624 314 615T335
605Q346 605 353 611T366 628L390 671L440 642L409 585Q398 565 381 554T340 542Q319 542 303 550T270 579Q258 592 248 601T227 611Q215 611 208 605T196 589L171 546Z" />
<glyph unicode="&#xe4;" horiz-adv-x="575" d="M233 -14Q182 -14 140 4T74 56T50 139Q50 189 74 221T140 270T234 287H399V323Q399 375 369 405T278 435Q219 435 186 407T141 330L67 354Q79 395 105 428T174 482T279 503Q373 503 425 455T477 318V97Q477 67 505
67H550V0H481Q448 0 428 18T408 68V73H396Q385 54 367 34T316 0T233 -14ZM242 54Q312 54 355 95T399 212V223H237Q190 223 160 203T129 141Q129 100 160 77T242 54ZM375 564Q350 564 333 580T316 624Q316 651 333 667T375 683Q402 683 418 667T435 624Q435 597
419 581T375 564ZM188 564Q162 564 145 580T128 624Q128 651 145 667T188 683Q214 683 231 667T248 624Q248 597 231 581T188 564Z" />
<glyph unicode="&#xe5;" horiz-adv-x="575" d="M233 -14Q182 -14 140 4T74 56T50 139Q50 189 74 221T140 270T234 287H399V323Q399 375 369 405T278 435Q219 435 186 407T141 330L67 354Q79 395 105 428T174 482T279 503Q373 503 425 455T477 318V97Q477 67 505
67H550V0H481Q448 0 428 18T408 68V73H396Q385 54 367 34T316 0T233 -14ZM242 54Q312 54 355 95T399 212V223H237Q190 223 160 203T129 141Q129 100 160 77T242 54ZM282 543Q241 543 212 569T183 638Q183 681 212 707T281 734Q323 734 352 708T381 638Q381 595
352 569T282 543ZM282 596Q302 596 313 608T325 638Q325 657 314 669T282 681Q262 681 251 669T239 638Q239 620 250 608T282 596Z" />
<glyph unicode="&#xe6;" horiz-adv-x="925" d="M654 -14Q582 -14 528 21T445 115T415 248Q415 321 444 378T526 469T645 503Q714 503 764 473T842 390T870 264V221H487Q492 145 536 101T652 56Q713 56 745 84T796 150L859 112Q841 79 816 50T751 4T654 -14ZM251
52Q321 52 364 94T408 211V221H243Q193 221 161 201T128 140Q128 99 162 76T251 52ZM245 -14Q160 -14 105 25T50 138Q50 212 104 248T240 284H408V323Q408 375 375 405T281 435Q220 435 185 407T136 332L64 355Q77 396 104 429T175 482T281 503Q347 503 389 478T453
410H476L454 255L467 100H441Q429 72 406 46T343 3T245 -14ZM488 284H791Q789 356 749 394T644 432Q578 432 536 393T488 284Z" />
<glyph unicode="&#xe7;" horiz-adv-x="598" d="M308 -14Q237 -14 181 16T92 104T59 239V250Q59 329 91 385T180 472T308 503Q378 503 427 477T505 408T542 316L465 300Q460 336 442 366T390 414T309 432Q260 432 222 410T161 347T138 249V240Q138 183 160 142T221
79T309 57Q382 57 420 95T468 189L546 172Q535 124 506 81T428 12T308 -14ZM311 -205Q281 -205 254 -197T206 -176L230 -126Q247 -136 266 -143T310 -150Q330 -150 344 -142T358 -116Q358 -100 346 -92T309 -84H272L282 21H340L334 -45Q373 -45 397 -65T421 -123Q421
-151 406 -169T366 -196T311 -205Z" />
<glyph unicode="&#xe8;" horiz-adv-x="592" d="M307 -14Q233 -14 177 17T90 106T59 238V250Q59 326 90 383T176 471T302 503Q371 503 424 474T507 389T537 260V224H138Q141 145 189 101T309 56Q372 56 406 85T458 154L526 121Q511 90 485 59T416 7T307 -14ZM139
289H457Q453 357 411 395T302 433Q235 433 192 395T139 289ZM278 563L182 700H278L354 563H278Z" />
<glyph unicode="&#xe9;" horiz-adv-x="592" d="M307 -14Q233 -14 177 17T90 106T59 238V250Q59 326 90 383T176 471T302 503Q371 503 424 474T507 389T537 260V224H138Q141 145 189 101T309 56Q372 56 406 85T458 154L526 121Q511 90 485 59T416 7T307 -14ZM139
289H457Q453 357 411 395T302 433Q235 433 192 395T139 289ZM249 555L326 691H421L325 555H249Z" />
<glyph unicode="&#xea;" horiz-adv-x="592" d="M307 -14Q233 -14 177 17T90 106T59 238V250Q59 326 90 383T176 471T302 503Q371 503 424 474T507 389T537 260V224H138Q141 145 189 101T309 56Q372 56 406 85T458 154L526 121Q511 90 485 59T416 7T307 -14ZM139
289H457Q453 357 411 395T302 433Q235 433 192 395T139 289ZM129 555L253 691H350L473 555H384L308 639H294L219 555H129Z" />
<glyph unicode="&#xeb;" horiz-adv-x="592" d="M307 -14Q233 -14 177 17T90 106T59 238V250Q59 326 90 383T176 471T302 503Q371 503 424 474T507 389T537 260V224H138Q141 145 189 101T309 56Q372 56 406 85T458 154L526 121Q511 90 485 59T416 7T307 -14ZM139
289H457Q453 357 411 395T302 433Q235 433 192 395T139 289ZM395 564Q370 564 353 580T336 624Q336 651 353 667T395 683Q422 683 438 667T455 624Q455 597 439 581T395 564ZM208 564Q182 564 165 580T148 624Q148 651 165 667T208 683Q234 683 251 667T268 624Q268
597 251 581T208 564Z" />
<glyph unicode="&#xec;" horiz-adv-x="245" d="M83 0V489H162V0H83ZM355 563L259 700H355L431 563H355Z" />
<glyph unicode="&#xed;" horiz-adv-x="245" d="M83 0V489H162V0H83ZM70 555L147 691H242L146 555H70Z" />
<glyph unicode="&#xee;" horiz-adv-x="245" d="M83 0V489H162V0H83ZM206 555L330 691H427L550 555H461L385 639H371L296 555H206Z" />
<glyph unicode="&#xef;" horiz-adv-x="245" d="M83 0V489H162V0H83ZM472 564Q447 564 430 580T413 624Q413 651 430 667T472 683Q499 683 515 667T532 624Q532 597 516 581T472 564ZM285 564Q259 564 242 580T225 624Q225 651 242 667T285 683Q311 683 328 667T345
624Q345 597 328 581T285 564Z" />
<glyph unicode="&#xf0;" horiz-adv-x="615" d="M309 -14Q234 -14 178 17T90 106T59 238V250Q59 325 89 380T172 467T292 499Q348 500 386 482T449 434H462Q442 511 379 572T204 666L229 728Q334 696 408 636T520 484T559 269Q559 178 528 115T441 19T309 -14ZM309
57Q360 57 398 79T458 143T480 241V248Q480 331 433 381T309 432Q232 432 185 382T138 248V241Q138 157 185 107T309 57ZM291 544L247 575L369 744L413 712L291 544Z" />
<glyph unicode="&#xf1;" horiz-adv-x="613" d="M83 0V489H160V406H174Q190 441 228 469T342 498Q397 498 440 475T510 407T536 296V0H457V290Q457 363 421 396T322 429Q251 429 207 383T162 246V0H83ZM197 546L147 575L178 631Q190 651 207 662T248 674Q269 674
284 666T318 638Q330 624 340 615T361 605Q372 605 379 611T392 628L416 671L466 642L435 585Q424 565 407 554T366 542Q345 542 329 550T296 579Q284 592 274 601T253 611Q241 611 234 605T222 589L197 546Z" />
<glyph unicode="&#xf2;" horiz-adv-x="618" d="M309 -14Q235 -14 179 17T91 104T59 238V251Q59 327 90 384T178 472T309 503Q383 503 439 472T527 384T559 251V238Q559 161 528 105T440 17T309 -14ZM309 57Q387 57 433 106T480 240V249Q480 333 434 382T309 432Q232
432 185 383T138 249V240Q138 156 185 107T309 57ZM285 563L189 700H285L361 563H285Z" />
<glyph unicode="&#xf3;" horiz-adv-x="618" d="M309 -14Q235 -14 179 17T91 104T59 238V251Q59 327 90 384T178 472T309 503Q383 503 439 472T527 384T559 251V238Q559 161 528 105T440 17T309 -14ZM309 57Q387 57 433 106T480 240V249Q480 333 434 382T309 432Q232
432 185 383T138 249V240Q138 156 185 107T309 57ZM256 555L333 691H428L332 555H256Z" />
<glyph unicode="&#xf4;" horiz-adv-x="618" d="M309 -14Q235 -14 179 17T91 104T59 238V251Q59 327 90 384T178 472T309 503Q383 503 439 472T527 384T559 251V238Q559 161 528 105T440 17T309 -14ZM309 57Q387 57 433 106T480 240V249Q480 333 434 382T309 432Q232
432 185 383T138 249V240Q138 156 185 107T309 57ZM137 555L261 691H358L481 555H392L316 639H302L227 555H137Z" />
<glyph unicode="&#xf5;" horiz-adv-x="618" d="M309 -14Q235 -14 179 17T91 104T59 238V251Q59 327 90 384T178 472T309 503Q383 503 439 472T527 384T559 251V238Q559 161 528 105T440 17T309 -14ZM309 57Q387 57 433 106T480 240V249Q480 333 434 382T309 432Q232
432 185 383T138 249V240Q138 156 185 107T309 57ZM198 546L148 575L179 631Q191 651 208 662T249 674Q270 674 285 666T319 638Q331 624 341 615T362 605Q373 605 380 611T393 628L417 671L467 642L436 585Q425 565 408 554T367 542Q346 542 330 550T297 579Q285
592 275 601T254 611Q242 611 235 605T223 589L198 546Z" />
<glyph unicode="&#xf6;" horiz-adv-x="618" d="M309 -14Q235 -14 179 17T91 104T59 238V251Q59 327 90 384T178 472T309 503Q383 503 439 472T527 384T559 251V238Q559 161 528 105T440 17T309 -14ZM309 57Q387 57 433 106T480 240V249Q480 333 434 382T309 432Q232
432 185 383T138 249V240Q138 156 185 107T309 57ZM402 564Q377 564 360 580T343 624Q343 651 360 667T402 683Q429 683 445 667T462 624Q462 597 446 581T402 564ZM215 564Q189 564 172 580T155 624Q155 651 172 667T215 683Q241 683 258 667T275 624Q275 597
258 581T215 564Z" />
<glyph unicode="&#xf7;" horiz-adv-x="620" d="M100 314V386H520V314H100ZM310 120Q282 120 264 138T245 185Q245 213 263 232T310 251Q338 251 356 232T375 185Q375 157 357 139T310 120ZM310 449Q282 449 264 468T245 515Q245 543 263 561T310 580Q338 580 356
562T375 515Q375 487 357 468T310 449Z" />
<glyph unicode="&#xf8;" horiz-adv-x="618" d="M309 -14Q235 -14 179 17T91 104T59 238V251Q59 327 90 384T178 472T309 503Q383 503 439 472T527 384T559 251V238Q559 161 528 105T440 17T309 -14ZM309 57Q387 57 433 106T480 240V249Q480 333 434 382T309 432Q232
432 185 383T138 249V240Q138 156 185 107T309 57ZM163 -62L113 -32L455 545L505 515L163 -62Z" />
<glyph unicode="&#xf9;" horiz-adv-x="612" d="M270 -9Q217 -9 173 14T103 82T77 193V489H156V199Q156 126 192 93T291 60Q361 60 406 106T451 243V489H530V0H453V83H439Q423 48 384 20T270 -9ZM280 563L184 700H280L356 563H280Z" />
<glyph unicode="&#xfa;" horiz-adv-x="612" d="M270 -9Q217 -9 173 14T103 82T77 193V489H156V199Q156 126 192 93T291 60Q361 60 406 106T451 243V489H530V0H453V83H439Q423 48 384 20T270 -9ZM250 555L327 691H422L326 555H250Z" />
<glyph unicode="&#xfb;" horiz-adv-x="612" d="M270 -9Q217 -9 173 14T103 82T77 193V489H156V199Q156 126 192 93T291 60Q361 60 406 106T451 243V489H530V0H453V83H439Q423 48 384 20T270 -9ZM131 555L255 691H352L475 555H386L310 639H296L221 555H131Z" />
<glyph unicode="&#xfc;" horiz-adv-x="612" d="M270 -9Q217 -9 173 14T103 82T77 193V489H156V199Q156 126 192 93T291 60Q361 60 406 106T451 243V489H530V0H453V83H439Q423 48 384 20T270 -9ZM396 564Q371 564 354 580T337 624Q337 651 354 667T396 683Q423
683 439 667T456 624Q456 597 440 581T396 564ZM209 564Q183 564 166 580T149 624Q149 651 166 667T209 683Q235 683 252 667T269 624Q269 597 252 581T209 564Z" />
<glyph unicode="&#xfd;" horiz-adv-x="612" d="M142 -200V-130H422Q451 -130 451 -100V78H437Q427 57 407 37T353 4T270 -9Q217 -9 173 14T103 82T77 192V489H156V198Q156 126 192 93T291 60Q361 60 406 106T451 243V489H530V-114Q530 -154 508 -177T442 -200H142ZM251
555L328 691H423L327 555H251Z" />
<glyph unicode="&#xfe;" horiz-adv-x="642" d="M83 -200V700H161V412H174Q187 435 209 455T266 489T353 503Q417 503 469 473T552 386T583 251V238Q583 160 552 103T469 16T353 -14Q302 -14 267 -1T209 33T174 76H161V-200H83ZM333 56Q409 56 456 104T504 240V249Q504
336 457 384T333 433Q258 433 210 385T161 249V240Q161 153 209 105T333 56Z" />
<glyph unicode="&#xff;" horiz-adv-x="612" d="M142 -200V-130H422Q451 -130 451 -100V78H437Q427 57 407 37T353 4T270 -9Q217 -9 173 14T103 82T77 192V489H156V198Q156 126 192 93T291 60Q361 60 406 106T451 243V489H530V-114Q530 -154 508 -177T442 -200H142ZM397
564Q372 564 355 580T338 624Q338 651 355 667T397 683Q424 683 440 667T457 624Q457 597 441 581T397 564ZM210 564Q184 564 167 580T150 624Q150 651 167 667T210 683Q236 683 253 667T270 624Q270 597 253 581T210 564Z" />
<glyph unicode="&#x2013;" horiz-adv-x="607" d="M79 221V294H527V221H79Z" />
<glyph unicode="&#x2014;" horiz-adv-x="911" d="M79 221V294H831V221H79Z" />
<glyph unicode="&#x2018;" horiz-adv-x="251" d="M176 714V664H147Q111 664 111 628V596H125Q154 596 173 578T193 533Q193 504 174 486T125 468Q96 468 77 487T58 535V628Q58 714 144 714H176Z" />
<glyph unicode="&#x2019;" horiz-adv-x="251" d="M75 468V518H104Q140 518 140 554V586H126Q97 586 78 604T58 649Q58 678 77 696T126 714Q155 714 174 695T193 647V554Q193 468 107 468H75Z" />
<glyph unicode="&#x201a;" horiz-adv-x="251" d="M75 -125V-75H104Q140 -75 140 -39V-7H126Q97 -7 78 11T58 56Q58 85 77 103T126 121Q155 121 174 102T193 54V-39Q193 -125 107 -125H75Z" />
<glyph unicode="&#x201c;" horiz-adv-x="425" d="M350 714V664H321Q285 664 285 628V596H299Q328 596 347 578T367 533Q367 504 348 486T299 468Q270 468 251 487T232 535V628Q232 714 318 714H350ZM176 714V664H147Q111 664 111 628V596H125Q154 596 173 578T193
533Q193 504 174 486T125 468Q96 468 77 487T58 535V628Q58 714 144 714H176Z" />
<glyph unicode="&#x201d;" horiz-adv-x="425" d="M75 468V518H104Q140 518 140 554V586H126Q97 586 78 604T58 649Q58 678 77 696T126 714Q155 714 174 695T193 647V554Q193 468 107 468H75ZM248 468V518H277Q313 518 313 554V586H299Q270 586 251 604T231 649Q231
678 250 696T299 714Q328 714 347 695T366 647V554Q366 468 280 468H248Z" />
<glyph unicode="&#x201e;" horiz-adv-x="425" d="M75 -125V-75H104Q140 -75 140 -39V-7H126Q97 -7 78 11T58 56Q58 85 77 103T126 121Q155 121 174 102T193 54V-39Q193 -125 107 -125H75ZM248 -125V-75H277Q313 -75 313 -39V-7H299Q270 -7 251 11T231 56Q231 85
250 103T299 121Q328 121 347 102T366 54V-39Q366 -125 280 -125H248Z" />
<glyph unicode="&#x2022;" horiz-adv-x="360" d="M180 139Q147 139 120 154T76 197T60 257Q60 291 76 318T119 360T180 376Q214 376 241 361T284 318T300 257Q300 223 284 196T241 154T180 139Z" />
<glyph unicode="&#x2039;" horiz-adv-x="462" d="M386 22L52 200V294L386 473H392V389L130 253V241L392 105V22H386Z" />
<glyph unicode="&#x203a;" horiz-adv-x="462" d="M69 22V105L332 241V253L69 389V473H75L410 294V200L75 22H69Z" />
</font>
</defs>
</svg>
