<?xml version="1.0" standalone="no"?>
<!DOCTYPE svg PUBLIC "-//W3C//DTD SVG 1.1//EN" "http://www.w3.org/Graphics/SVG/1.1/DTD/svg11.dtd">
<svg xmlns="http://www.w3.org/2000/svg">
<defs >
<font id="SpaceGrotesk" horiz-adv-x="559" ><font-face
    font-family="Space Grotesk Light"
    units-per-em="1000"
    panose-1="0 0 0 0 0 0 0 0 0 0"
    ascent="984"
    descent="-292"
    alphabetic="0" />
<glyph unicode=" " horiz-adv-x="254" />
<glyph unicode="!" horiz-adv-x="298" d="M85 230V700H213V230H85ZM150 -14Q109 -14 82 12T54 81Q54 123 81 149T150 176Q190 176 217 150T244 81Q244 39 217 13T150 -14Z" />
<glyph unicode="&quot;" horiz-adv-x="514" d="M79 393V461H118Q164 461 164 507V539H147Q107 539 81 563T54 624Q54 664 80 689T147 714Q188 714 214 689T240 620V505Q240 393 128 393H79ZM299 393V461H338Q384 461 384 507V539H367Q327 539 301 563T274 624Q274
664 300 689T367 714Q408 714 434 689T460 620V505Q460 393 348 393H299Z" />
<glyph unicode="#" horiz-adv-x="636" d="M148 0V186H40V294H148V406H40V514H148V700H262V514H374V700H488V514H596V406H488V294H596V186H488V0H374V186H262V0H148ZM262 294H374V406H262V294Z" />
<glyph unicode="$" horiz-adv-x="606" d="M309 -14Q228 -14 166 15T69 98T34 228V256H164V228Q164 165 203 134T309 102Q377 102 410 129T444 198Q444 227 428 245T381 274T305 296L282 301Q210 317 159 341T80 406T52 510Q52 574 82 619T168 689T299 714Q374
714 432 689T524 613T558 486V456H428V486Q428 526 413 550T368 586T299 598Q239 598 211 576T182 514Q182 488 195 470T236 440T305 419L328 414Q403 398 458 373T543 307T574 202Q574 138 542 90T450 14T309 -14ZM248 -116V816H368V-116H248Z" />
<glyph unicode="%" horiz-adv-x="758" d="M148 -13L72 48L610 713L686 652L148 -13ZM570 -10Q494 -10 451 30T408 141V148Q408 219 451 259T570 300Q644 300 688 260T732 148V141Q732 71 689 31T570 -10ZM570 72Q599 72 615 90T632 137V153Q632 182 616 200T570
218Q541 218 525 200T508 153V137Q508 108 524 90T570 72ZM188 400Q112 400 69 440T26 551V558Q26 629 69 669T188 710Q262 710 306 670T350 558V551Q350 481 307 441T188 400ZM188 482Q217 482 233 500T250 547V563Q250 592 234 610T188 628Q159 628 143 610T126
563V547Q126 518 142 500T188 482Z" />
<glyph unicode="&amp;" horiz-adv-x="591" d="M235 0Q173 0 127 22T54 87T28 189Q28 232 43 264T86 317T146 348V362Q96 377 64 414T32 512Q32 573 59 615T132 678T239 700H348V596H262Q217 596 188 572T158 501Q158 468 172 447T210 416T262 406H359V496H485V406H577V302H485V0H235ZM258
104H359V302H258Q214 302 184 277T154 203Q154 153 185 129T258 104Z" />
<glyph unicode="&apos;" horiz-adv-x="294" d="M79 393V461H118Q164 461 164 507V539H147Q107 539 81 563T54 624Q54 664 80 689T147 714Q188 714 214 689T240 620V505Q240 393 128 393H79Z" />
<glyph unicode="(" horiz-adv-x="398" d="M390 -246Q279 -246 203 -207T89 -88T50 116V394Q50 518 88 598T203 717T390 756V648Q281 648 227 586T172 390V120Q172 -13 226 -75T390 -138V-246Z" />
<glyph unicode=")" horiz-adv-x="390" d="M0 -246V-138Q110 -138 164 -76T218 120V390Q218 523 164 585T0 648V756Q112 756 187 717T301 598T340 394V116Q340 -8 302 -88T188 -207T0 -246Z" />
<glyph unicode="*" horiz-adv-x="540" d="M44 437V511H122L194 498L199 511L139 552L84 608L136 660L192 605L233 545L246 550L233 622V700H307V622L294 550L307 545L348 605L404 660L456 608L401 552L341 511L346 498L418 511H496V437H418L346 450L341 437L401
396L456 340L404 288L348 343L307 403L294 398L307 326V248H233V326L246 398L233 403L192 343L136 288L84 340L139 396L199 437L194 450L122 437H44Z" />
<glyph unicode="+" horiz-adv-x="620" d="M251 141V293H101V407H251V559H369V407H519V293H369V141H251Z" />
<glyph unicode="," horiz-adv-x="294" d="M79 -147V-79H118Q164 -79 164 -33V-1H147Q107 -1 81 23T54 84Q54 124 80 149T147 174Q188 174 214 149T240 80V-35Q240 -147 128 -147H79Z" />
<glyph unicode="-" horiz-adv-x="432" d="M68 198V312H364V198H68Z" />
<glyph unicode="." horiz-adv-x="298" d="M150 -14Q109 -14 82 12T54 81Q54 123 81 149T150 176Q190 176 217 150T244 81Q244 39 217 13T150 -14Z" />
<glyph unicode="/" horiz-adv-x="388" d="M-16 -200L278 700H404L110 -200H-16Z" />
<glyph unicode="0" horiz-adv-x="648" d="M324 -14Q200 -14 125 54T50 262V438Q50 573 125 643T324 714Q449 714 523 644T598 438V262Q598 123 524 55T324 -14ZM324 100Q399 100 434 141T470 258V444Q470 521 431 560T324 600Q255 600 217 559T178 444V258Q178
179 214 140T324 100Z" />
<glyph unicode="1" horiz-adv-x="452" d="M258 0V606H240L146 384H12L155 700H386V0H258Z" />
<glyph unicode="2" horiz-adv-x="594" d="M42 0V84Q42 157 66 205T135 285T247 337L314 358Q351 370 376 387T414 430T428 487V491Q428 541 394 570T301 600Q243 600 208 569T172 478V460H44V476Q44 552 78 605T170 686T301 714Q373 714 431 687T522 610T556 493V483Q556
416 529 370T454 294T347 245L283 225Q240 212 216 197T183 163T173 118V114H550V0H42Z" />
<glyph unicode="3" horiz-adv-x="608" d="M304 -14Q225 -14 164 14T69 94T34 219V237H162V223Q162 167 201 134T304 100Q369 100 404 131T440 209V219Q440 251 424 271T381 300T320 310H180V450L406 570V586H52V700H548V530L337 418V402H374Q421 402 465 383T539
325T568 222V210Q568 142 535 92T443 14T304 -14Z" />
<glyph unicode="4" horiz-adv-x="636" d="M370 0V142H26V290L268 700H498V256H614V142H498V0H370ZM148 256H370V618H352L148 272V256Z" />
<glyph unicode="5" horiz-adv-x="600" d="M303 -14Q221 -14 162 15T70 97T38 220V230H168V221Q168 171 201 136T301 100Q367 100 402 135T438 228V238Q438 294 403 327T314 360Q285 360 266 352T235 332T215 308H60V700H538V584H188V413H206Q216 426 233 438T277
458T341 466Q403 466 454 440T535 364T566 239V227Q566 153 535 99T444 16T303 -14Z" />
<glyph unicode="6" horiz-adv-x="618" d="M312 -14Q232 -14 173 16T82 99T50 221V460Q50 545 84 601T179 686T318 714Q396 714 453 688T542 613T574 496H444Q444 538 415 569T318 600Q251 600 215 565T178 468V396H196Q213 416 248 434T350 452Q411 452 462 426T546
351T578 231V219Q578 150 545 98T452 16T312 -14ZM314 100Q377 100 413 133T450 221V229Q450 266 434 293T387 335T314 350Q273 350 242 335T195 293T178 229V221Q178 166 214 133T314 100Z" />
<glyph unicode="7" horiz-adv-x="554" d="M131 0V26Q131 65 137 92T163 155L398 570V586H26V700H530V548L282 105Q269 82 264 64T259 20V0H131Z" />
<glyph unicode="8" horiz-adv-x="600" d="M300 -14Q220 -14 159 10T63 79T28 187V199Q28 247 45 278T87 328T136 353V371Q113 379 90 397T53 445T38 517V529Q38 584 70 625T162 690T300 714Q379 714 438 691T529 626T562 529V517Q562 475 548 445T511 397T464
371V353Q488 346 513 328T555 279T572 199V187Q572 125 538 80T442 10T300 -14ZM300 100Q369 100 406 126T444 197V205Q444 249 408 275T300 302Q230 302 193 276T156 205V197Q156 153 193 127T300 100ZM300 416Q364 416 399 439T434 504V512Q434 554 398 577T300
600Q238 600 202 577T166 512V504Q166 462 201 439T300 416Z" />
<glyph unicode="9" horiz-adv-x="618" d="M300 -14Q222 -14 165 12T76 87T44 204H174Q174 162 203 131T300 100Q368 100 404 135T440 232V304H422Q405 284 371 266T268 248Q208 248 156 274T72 349T40 469V481Q40 551 73 603T166 684T306 714Q386 714 445 684T536
601T568 479V240Q568 155 534 99T439 14T300 -14ZM304 350Q346 350 376 365T423 407T440 471V479Q440 535 404 567T304 600Q241 600 205 568T168 479V471Q168 434 184 407T232 365T304 350Z" />
<glyph unicode=":" horiz-adv-x="298" d="M150 -14Q109 -14 82 12T54 81Q54 123 81 149T150 176Q190 176 217 150T244 81Q244 39 217 13T150 -14ZM150 320Q109 320 82 346T54 415Q54 457 81 483T150 510Q190 510 217 484T244 415Q244 373 217 347T150 320Z" />
<glyph unicode=";" horiz-adv-x="298" d="M150 320Q109 320 82 346T54 415Q54 457 81 483T150 510Q190 510 217 484T244 415Q244 373 217 347T150 320ZM81 -147V-79H120Q166 -79 166 -33V-1H149Q109 -1 83 23T56 84Q56 124 82 149T149 174Q190 174 216 149T242
80V-35Q242 -147 130 -147H81Z" />
<glyph unicode="&lt;" horiz-adv-x="620" d="M520 130L100 272V428L520 570V450L222 359V341L520 250V130Z" />
<glyph unicode="=" horiz-adv-x="620" d="M101 380V494H519V380H101ZM101 206V320H519V206H101Z" />
<glyph unicode="&gt;" horiz-adv-x="620" d="M100 130V250L398 341V359L100 450V570L520 428V272L100 130Z" />
<glyph unicode="?" horiz-adv-x="578" d="M209 230V254Q209 305 229 338T296 393L313 401Q358 422 382 446T406 510Q406 539 392 559T351 591T290 602Q254 602 226 590T181 554T164 494V472H34V492Q34 561 68 611T160 687T290 714Q361 714 416 688T504 616T536
510Q536 450 514 412T459 350T390 309L373 301Q355 293 348 282T341 248V230H209ZM279 -14Q239 -14 212 12T184 81Q184 123 211 149T279 176Q320 176 347 150T374 81Q374 39 347 13T279 -14Z" />
<glyph unicode="@" horiz-adv-x="1014" d="M524 -200Q381 -200 279 -146T121 9T66 246V270Q66 407 120 506T274 660T512 714H534Q660 714 754 662T900 515T952 296V222Q952 117 909 59T780 0H722Q675 0 650 19T625 70V72H607Q599 51 584 33T544 5T483 -6Q420 -6
375 27T305 117T280 242V258Q280 328 303 384T370 473T473 506Q510 506 534 497T573 473T598 440H616V500H738V146Q738 129 745 121T769 112H773Q802 112 815 139T828 222V294Q828 389 796 457T697 563T530 600H516Q415 600 342 562T230 450T190 266V250Q190 141
230 66T347 -47T532 -86H740V-200H524ZM509 102Q558 102 587 140T616 244V256Q616 322 587 360T509 398Q460 398 432 360T404 256V244Q404 178 432 140T509 102Z" />
<glyph unicode="A" horiz-adv-x="634" d="M18 0L202 700H432L616 0H480L442 154H192L154 0H18ZM223 276H411L326 617H308L223 276Z" />
<glyph unicode="B" horiz-adv-x="664" d="M46 0V116H138V584H46V700H406Q470 700 517 679T591 618T618 523V513Q618 465 600 435T558 388T511 364V346Q533 340 559 324T603 276T622 195V185Q622 127 595 86T521 22T410 0H46ZM270 120H394Q437 120 463 141T490
201V211Q490 250 464 271T394 292H270V120ZM270 412H392Q433 412 459 433T486 491V501Q486 539 460 559T392 580H270V412Z" />
<glyph unicode="C" horiz-adv-x="644" d="M332 -14Q202 -14 126 58T50 266V434Q50 569 126 641T332 714Q461 714 531 644T602 450V444H472V454Q472 516 438 556T332 596Q262 596 222 553T182 436V264Q182 191 222 148T332 104Q403 104 437 144T472 246V264H602V250Q602
127 532 57T332 -14Z" />
<glyph unicode="D" horiz-adv-x="666" d="M46 0V116H138V584H46V700H334Q475 700 548 629T622 416V284Q622 143 549 72T334 0H46ZM270 120H336Q416 120 453 162T490 280V420Q490 497 453 538T336 580H270V120Z" />
<glyph unicode="E" horiz-adv-x="554" d="M66 0V700H516V580H198V413H488V293H198V120H522V0H66Z" />
<glyph unicode="F" horiz-adv-x="534" d="M66 0V700H506V580H198V411H482V291H198V0H66Z" />
<glyph unicode="G" horiz-adv-x="662" d="M308 -14Q236 -14 178 18T85 113T50 266V434Q50 569 126 641T332 714Q461 714 531 646T602 460V456H472V464Q472 501 457 531T410 578T332 596Q262 596 222 553T182 436V264Q182 191 222 147T334 102Q406 102 439 140T472
236V246H306V358H602V0H480V67H462Q455 50 440 31T393 -1T308 -14Z" />
<glyph unicode="H" horiz-adv-x="656" d="M66 0V700H198V411H458V700H590V0H458V291H198V0H66Z" />
<glyph unicode="I" horiz-adv-x="264" d="M66 0V700H198V0H66Z" />
<glyph unicode="J" horiz-adv-x="610" d="M267 -14Q159 -14 96 45T32 210V276H164V210Q164 163 190 137T263 110Q307 110 331 136T356 210V580H236V700H568V580H488V210Q488 101 429 44T267 -14Z" />
<glyph unicode="K" horiz-adv-x="626" d="M66 0V700H198V422H216L443 700H612L320 355L622 0H448L216 284H198V0H66Z" />
<glyph unicode="L" horiz-adv-x="542" d="M66 0V700H198V120H518V0H66Z" />
<glyph unicode="M" horiz-adv-x="882" d="M66 0V700H311L432 90H450L571 700H816V0H688V603H670L550 0H332L212 603H194V0H66Z" />
<glyph unicode="N" horiz-adv-x="670" d="M66 0V700H317L456 90H474V700H604V0H353L214 610H196V0H66Z" />
<glyph unicode="O" horiz-adv-x="676" d="M338 -14Q206 -14 128 58T50 266V434Q50 569 128 641T338 714Q470 714 548 642T626 434V266Q626 131 548 59T338 -14ZM338 104Q412 104 453 147T494 262V438Q494 510 453 553T338 596Q265 596 224 553T182 438V262Q182
190 223 147T338 104Z" />
<glyph unicode="P" horiz-adv-x="604" d="M66 0V700H354Q420 700 470 674T549 599T578 485V471Q578 406 549 358T469 283T354 256H198V0H66ZM198 376H341Q388 376 417 402T446 473V483Q446 528 417 554T341 580H198V376Z" />
<glyph unicode="Q" horiz-adv-x="676" d="M338 -14Q206 -14 128 58T50 266V434Q50 569 128 641T338 714Q470 714 548 642T626 434V266Q626 131 548 59T338 -14ZM338 104Q412 104 453 147T494 262V438Q494 510 453 553T338 596Q265 596 224 553T182 438V262Q182
190 223 147T338 104ZM384 -180Q335 -180 305 -150T274 -68V0H402V-48Q402 -78 430 -78H489V-180H384Z" />
<glyph unicode="R" horiz-adv-x="632" d="M66 0V700H370Q436 700 485 677T561 612T588 513V501Q588 438 558 399T484 342V324Q524 322 546 297T568 229V0H436V210Q436 234 424 249T382 264H198V0H66ZM198 384H356Q403 384 429 409T456 477V487Q456 529 430 554T356
580H198V384Z" />
<glyph unicode="S" horiz-adv-x="606" d="M309 -14Q228 -14 166 15T69 98T34 228V256H164V228Q164 165 203 134T309 102Q377 102 410 129T444 198Q444 227 428 245T380 274T303 296L280 301Q208 317 157 341T78 406T50 510Q50 574 80 619T166 689T297 714Q372
714 430 689T522 613T556 486V456H426V486Q426 526 411 550T366 586T297 598Q237 598 209 576T180 514Q180 488 193 470T234 440T303 419L326 414Q401 398 456 373T543 307T574 202Q574 138 542 90T450 14T309 -14Z" />
<glyph unicode="T" horiz-adv-x="588" d="M228 0V580H24V700H564V580H360V0H228Z" />
<glyph unicode="U" horiz-adv-x="672" d="M336 -14Q250 -14 189 17T95 107T62 246V700H194V242Q194 178 230 141T336 104Q405 104 441 141T478 242V700H610V246Q610 166 578 108T484 18T336 -14Z" />
<glyph unicode="V" horiz-adv-x="618" d="M196 0L18 700H154L302 85H316L464 700H600L422 0H196Z" />
<glyph unicode="W" horiz-adv-x="898" d="M122 0L30 700H161L229 92H247L335 700H563L651 92H669L737 700H868L776 0H548L458 622H440L350 0H122Z" />
<glyph unicode="X" horiz-adv-x="644" d="M22 0L227 353L24 700H174L313 447H331L470 700H620L417 353L622 0H472L331 259H313L172 0H22Z" />
<glyph unicode="Y" horiz-adv-x="624" d="M246 0V241L8 700H155L303 400H321L469 700H616L378 241V0H246Z" />
<glyph unicode="Z" horiz-adv-x="576" d="M46 0V168L392 566V582H56V700H530V532L184 134V118H532V0H46Z" />
<glyph unicode="[" horiz-adv-x="358" d="M172 -246Q127 -246 99 -218T70 -144V654Q70 699 98 727T172 756H342V648H219Q192 648 192 618V-108Q192 -138 219 -138H342V-246H172Z" />
<glyph unicode="\" horiz-adv-x="388" d="M278 -200L-16 700H110L404 -200H278Z" />
<glyph unicode="]" horiz-adv-x="358" d="M16 -246V-138H139Q166 -138 166 -108V618Q166 648 139 648H16V756H186Q231 756 259 728T288 654V-144Q288 -189 260 -217T186 -246H16Z" />
<glyph unicode="^" horiz-adv-x="620" d="M70 424L216 700H404L550 424H410L319 620H301L210 424H70Z" />
<glyph unicode="_" horiz-adv-x="620" d="M65 -162V-48H555V-162H65Z" />
<glyph unicode="`" horiz-adv-x="296" d="M146 552L40 700H182L256 552H146Z" />
<glyph unicode="a" horiz-adv-x="578" d="M224 -14Q171 -14 129 4T63 58T38 145Q38 196 62 230T130 282T230 300H366V328Q366 363 344 385T274 408Q227 408 204 387T174 331L58 370Q70 408 96 439T167 490T276 510Q374 510 431 461T488 319V134Q488 104 516 104H556V0H472Q435
0 411 18T387 66V67H368Q364 55 350 36T306 1T224 -14ZM246 88Q299 88 332 117T366 196V206H239Q204 206 184 191T164 149Q164 122 185 105T246 88Z" />
<glyph unicode="b" horiz-adv-x="638" d="M368 -14Q301 -14 265 9T212 60H194V0H70V700H196V439H214Q225 457 243 473T292 499T368 510Q428 510 479 481T561 394T592 256V240Q592 159 561 102T479 16T368 -14ZM330 96Q388 96 427 133T466 243V253Q466 325 428
362T330 400Q272 400 233 363T194 253V243Q194 171 233 134T330 96Z" />
<glyph unicode="c" horiz-adv-x="586" d="M303 -14Q231 -14 173 16T80 103T46 241V255Q46 336 80 393T172 480T303 510Q374 510 425 485T507 417T549 318L427 292Q423 322 409 346T370 384T306 398Q268 398 238 382T190 333T172 253V243Q172 196 189 164T237 115T306
98Q363 98 392 127T430 205L552 176Q539 123 508 80T425 11T303 -14Z" />
<glyph unicode="d" horiz-adv-x="638" d="M270 -14Q211 -14 160 15T77 102T46 240V256Q46 337 77 394T159 480T270 510Q315 510 345 500T395 473T424 439H442V700H568V0H444V60H426Q409 32 374 9T270 -14ZM308 96Q366 96 405 133T444 243V253Q444 325 406 362T308
400Q250 400 211 363T172 253V243Q172 171 211 134T308 96Z" />
<glyph unicode="e" horiz-adv-x="577" d="M296 -14Q222 -14 166 17T78 106T46 242V254Q46 332 77 389T164 478T294 510Q367 510 421 478T505 388T535 254V211H174Q176 160 212 128T300 96Q353 96 378 119T416 170L519 116Q505 90 479 60T408 8T296 -14ZM175 305H407Q403
348 373 374T293 400Q242 400 212 374T175 305Z" />
<glyph unicode="f" horiz-adv-x="436" d="M152 0V392H26V496H152V588Q152 639 182 669T262 700H392V596H306Q278 596 278 566V496H408V392H278V0H152Z" />
<glyph unicode="g" horiz-adv-x="638" d="M46 246V262Q46 340 77 395T159 480T272 510Q340 510 375 486T426 436H444V496H568V-88Q568 -139 538 -169T458 -200H126V-90H414Q442 -90 442 -60V69H424Q414 53 396 37T348 9T272 -2Q211 -2 160 27T77 112T46 246ZM308
108Q366 108 405 145T444 249V259Q444 327 406 363T308 400Q250 400 211 364T172 259V249Q172 182 211 145T308 108Z" />
<glyph unicode="h" horiz-adv-x="616" d="M70 0V700H196V435H214Q222 451 239 467T284 493T357 504Q415 504 458 478T526 405T550 296V0H424V286Q424 342 397 370T318 398Q260 398 228 360T196 252V0H70Z" />
<glyph unicode="i" horiz-adv-x="266" d="M70 0V496H196V0H70ZM133 554Q99 554 76 576T52 634Q52 670 75 692T133 714Q168 714 191 692T214 634Q214 598 191 576T133 554Z" />
<glyph unicode="j" horiz-adv-x="268" d="M-22 -200V-92H44Q72 -92 72 -62V496H198V-88Q198 -139 168 -169T88 -200H-22ZM135 554Q101 554 78 576T54 634Q54 670 77 692T135 714Q170 714 193 692T216 634Q216 598 193 576T135 554Z" />
<glyph unicode="k" horiz-adv-x="564" d="M70 0V700H196V313H214L378 496H542L313 256L550 0H388L214 197H196V0H70Z" />
<glyph unicode="l" horiz-adv-x="266" d="M70 0V700H196V0H70Z" />
<glyph unicode="m" horiz-adv-x="854" d="M70 0V496H194V442H212Q225 467 255 485T334 504Q387 504 419 484T468 430H486Q503 462 534 483T622 504Q668 504 705 485T765 426T788 326V0H662V317Q662 358 641 378T582 399Q539 399 516 372T492 293V0H366V317Q366
358 345 378T286 399Q243 399 220 372T196 293V0H70Z" />
<glyph unicode="n" horiz-adv-x="616" d="M70 0V496H194V431H212Q224 457 257 480T357 504Q415 504 458 478T526 405T550 296V0H424V286Q424 342 397 370T318 398Q260 398 228 360T196 252V0H70Z" />
<glyph unicode="o" horiz-adv-x="612" d="M306 -14Q232 -14 173 16T80 103T46 240V256Q46 336 80 393T173 480T306 510Q380 510 439 480T532 393T566 256V240Q566 160 532 103T439 16T306 -14ZM306 98Q364 98 402 135T440 243V253Q440 323 403 360T306 398Q248
398 210 361T172 253V243Q172 173 210 136T306 98Z" />
<glyph unicode="p" horiz-adv-x="638" d="M70 -200V496H194V436H212Q229 465 265 487T368 510Q428 510 479 481T561 394T592 256V240Q592 159 561 102T479 16T368 -14Q323 -14 293 -4T244 23T214 57H196V-200H70ZM330 96Q389 96 427 133T466 243V253Q466 325 427
362T330 400Q272 400 233 363T194 253V243Q194 171 233 134T330 96Z" />
<glyph unicode="q" horiz-adv-x="638" d="M442 -200V57H424Q414 40 395 24T346 -3T270 -14Q210 -14 159 15T77 102T46 240V256Q46 337 77 394T159 480T270 510Q338 510 373 488T426 436H444V496H568V-200H442ZM308 96Q367 96 405 133T444 243V253Q444 325 405
362T308 400Q250 400 211 363T172 253V243Q172 171 211 134T308 96Z" />
<glyph unicode="r" horiz-adv-x="396" d="M70 0V496H194V440H212Q223 470 248 484T308 498H368V386H306Q258 386 227 361T196 282V0H70Z" />
<glyph unicode="s" horiz-adv-x="524" d="M276 -14Q179 -14 117 28T42 148L158 178Q165 143 181 123T222 95T276 86Q320 86 341 101T362 140Q362 163 342 175T278 196L250 201Q198 211 155 228T86 277T60 357Q60 431 114 470T256 510Q339 510 394 473T466 376L349
340Q341 378 317 394T256 410Q220 410 201 398T182 363Q182 339 202 328T256 310L284 305Q340 295 385 279T457 232T484 149Q484 71 428 29T276 -14Z" />
<glyph unicode="t" horiz-adv-x="456" d="M260 0Q211 0 181 30T150 112V392H26V496H150V650H276V496H412V392H276V134Q276 104 304 104H400V0H260Z" />
<glyph unicode="u" horiz-adv-x="616" d="M259 -8Q201 -8 158 18T90 92T66 200V496H192V210Q192 154 219 126T298 98Q356 98 388 136T420 244V496H546V0H422V65H404Q392 40 359 16T259 -8Z" />
<glyph unicode="v" horiz-adv-x="548" d="M174 0L16 496H150L265 92H283L398 496H532L374 0H174Z" />
<glyph unicode="w" horiz-adv-x="784" d="M110 0L40 496H165L209 85H227L291 496H493L557 85H575L619 496H744L674 0H465L401 411H383L319 0H110Z" />
<glyph unicode="x" horiz-adv-x="592" d="M26 0L206 250L28 496H174L287 331H305L418 496H564L386 250L566 0H418L305 167H287L174 0H26Z" />
<glyph unicode="y" horiz-adv-x="616" d="M124 -200V-90H394Q422 -90 422 -60V65H404Q396 48 379 31T333 3T259 -8Q201 -8 158 18T90 92T66 200V496H192V210Q192 154 219 126T298 98Q356 98 388 136T420 244V496H546V-88Q546 -139 516 -169T436 -200H124Z" />
<glyph unicode="z" horiz-adv-x="518" d="M52 0V150L324 376V392H62V496H462V346L190 120V104H470V0H52Z" />
<glyph unicode="{" horiz-adv-x="466" d="M280 -246Q235 -246 207 -218T178 -144V166Q178 195 151 195H36V315H151Q178 315 178 344V654Q178 699 206 727T280 756H450V648H327Q300 648 300 618V344Q300 310 279 287T222 264H206V246H222Q257 246 278 223T300 166V-108Q300
-138 327 -138H450V-246H280Z" />
<glyph unicode="|" horiz-adv-x="258" d="M66 -246V806H192V-246H66Z" />
<glyph unicode="}" horiz-adv-x="466" d="M16 -246V-138H139Q166 -138 166 -108V166Q166 200 187 223T244 246H260V264H244Q209 264 188 287T166 344V618Q166 648 139 648H16V756H186Q231 756 259 728T288 654V344Q288 315 315 315H430V195H315Q288 195 288 166V-144Q288
-189 260 -217T186 -246H16Z" />
<glyph unicode="~" horiz-adv-x="620" d="M113 237L43 330L163 420Q183 436 205 446T257 457Q286 457 305 446T338 416Q352 397 360 389T381 381Q393 381 403 387T427 404L506 463L576 370L456 280Q436 264 414 254T362 243Q333 243 314 254T281 284Q267 304 260
311T238 319Q226 319 216 313T192 296L113 237Z" />
<glyph unicode="&#xa0;" horiz-adv-x="254" />
<glyph unicode="&#xa1;" horiz-adv-x="298" d="M85 -200V266H213V-200H85ZM150 510Q190 510 217 484T244 415Q244 373 217 347T150 320Q109 320 82 346T54 415Q54 457 81 483T150 510Z" />
<glyph unicode="&#xa2;" horiz-adv-x="598" d="M307 -14Q235 -14 177 16T84 103T50 241V255Q50 336 84 393T176 480T307 510Q378 510 429 485T511 417T553 318L431 292Q427 322 413 346T374 384T310 398Q272 398 242 382T194 333T176 253V243Q176 196 193 164T241
115T310 98Q367 98 396 127T434 205L556 176Q543 123 512 80T429 11T307 -14ZM253 -116V612H365V-116H253Z" />
<glyph unicode="&#xa3;" horiz-adv-x="638" d="M52 0V114H126V286H56V388H126V494Q126 598 187 656T354 714Q459 714 520 656T582 494V432H456V498Q456 546 429 573T354 600Q308 600 280 573T252 498V388H352V286H252V114H586V0H52Z" />
<glyph unicode="&#xa4;" horiz-adv-x="620" d="M115 78L38 155L99 216Q80 245 70 278T60 350Q60 387 70 421T99 484L38 545L115 622L176 561Q205 579 238 589T310 600Q347 600 381 590T444 561L505 622L582 545L521 484Q539 455 549 421T560 350Q560 312 550 279T521
216L582 155L505 78L444 139Q415 120 381 110T310 100Q272 100 239 110T176 139L115 78ZM310 208Q350 208 382 227T433 278T452 350Q452 390 433 422T382 473T310 492Q271 492 239 473T187 422T168 350Q168 311 187 279T238 227T310 208Z" />
<glyph unicode="&#xa5;" horiz-adv-x="620" d="M244 0V267L223 277L-2 700H148L301 402H319L472 700H622L397 277L376 267V0H244ZM83 106V208H537V106H83ZM83 262V364H537V262H83Z" />
<glyph unicode="&#xa6;" horiz-adv-x="258" d="M66 366V806H192V366H66ZM66 -246V194H192V-246H66Z" />
<glyph unicode="&#xa7;" horiz-adv-x="474" d="M240 -14Q143 -14 87 40T30 184V198H138V186Q138 142 162 115T239 88Q282 88 303 104T324 152Q324 182 304 198T231 225Q147 240 100 279T52 390Q52 414 57 434T73 472Q52 505 52 550V556Q52 606 75 641T139 695T232
714Q318 714 372 670T426 548V526H318V538Q318 558 310 575T284 602T235 612Q201 612 182 597T162 556Q162 524 191 510T263 487Q353 471 393 431T434 324Q434 274 416 238Q425 222 429 204T434 164V156Q434 81 384 34T240 -14ZM320 309Q321 311 321 313T321 320Q321
346 303 363T231 389Q214 392 198 396T166 406Q163 400 163 390Q163 359 192 345T263 323Q280 320 293 317T320 309Z" />
<glyph unicode="&#xa8;" horiz-adv-x="448" d="M327 550Q293 550 270 571T246 630Q246 667 269 688T327 710Q362 710 385 689T408 630Q408 593 385 572T327 550ZM121 550Q87 550 64 571T40 630Q40 667 63 688T121 710Q156 710 179 689T202 630Q202 593 179 572T121 550Z" />
<glyph unicode="&#xa9;" horiz-adv-x="720" d="M350 -12Q258 -12 191 24T87 127T50 290V410Q50 505 86 572T190 676T350 712H370Q462 712 529 676T633 573T670 410V290Q670 195 634 128T530 24T370 -12H350ZM352 84H368Q464 84 516 136T568 288V412Q568 511 516
563T368 616H352Q256 616 204 564T152 412V288Q152 189 204 137T352 84ZM362 154Q298 154 260 193T222 304V398Q222 470 260 509T362 548Q433 548 466 510T500 408V394H406V414Q406 434 396 446T362 458Q340 458 329 446T318 414V288Q318 268 329 256T362 244Q385
244 395 256T406 288V308H500V294Q500 231 467 193T362 154Z" />
<glyph unicode="&#xaa;" horiz-adv-x="419" d="M161 340Q106 340 70 368T34 452Q34 505 71 533T166 562H255V578Q255 604 242 620T196 636Q165 636 149 621T128 586L47 613Q58 653 95 681T199 710Q265 710 306 677T347 574V443Q347 422 366 422H399V350H333Q307
350 292 362T274 395H262Q259 386 248 373T216 350T161 340ZM179 414Q214 414 234 431T255 485V496H175Q153 496 140 485T126 456Q126 438 140 426T179 414Z" />
<glyph unicode="&#xab;" horiz-adv-x="720" d="M646 6L352 180V316L646 490H652V354L471 257V239L652 142V6H646ZM346 6L52 180V316L346 490H352V354L171 257V239L352 142V6H346Z" />
<glyph unicode="&#xac;" horiz-adv-x="620" d="M408 162V293H100V407H520V162H408Z" />
<glyph unicode="&#xad;" horiz-adv-x="432" d="M68 198V312H364V198H68Z" />
<glyph unicode="&#xae;" horiz-adv-x="516" d="M258 298Q198 298 151 324T76 398T48 506Q48 567 75 614T150 687T258 714Q318 714 365 688T440 614T468 506Q468 445 441 398T366 325T258 298ZM258 340Q333 340 378 385T424 506Q424 581 379 626T258 672Q183 672
138 627T92 506Q92 431 137 386T258 340ZM186 397V619H271Q308 619 327 601T346 559Q346 540 337 526T306 503V493Q323 492 330 482T338 455V397H296V457Q296 478 275 478H228V397H186ZM228 516H271Q288 516 296 526T304 549Q304 563 296 572T271 581H228V516Z"
/>
<glyph unicode="&#xaf;" horiz-adv-x="408" d="M40 566V666H368V566H40Z" />
<glyph unicode="&#xb0;" horiz-adv-x="394" d="M197 394Q151 394 114 414T54 471T32 555Q32 601 54 637T113 693T197 714Q243 714 280 694T340 637T362 554Q362 508 340 472T281 415T197 394ZM197 490Q225 490 243 508T262 554Q262 583 244 600T197 618Q169 618
151 601T132 554Q132 526 150 508T197 490Z" />
<glyph unicode="&#xb1;" horiz-adv-x="620" d="M251 162V294H101V408H251V540H369V408H519V294H369V162H251ZM101 0V114H519V0H101Z" />
<glyph unicode="&#xb2;" horiz-adv-x="364" d="M26 350V394Q26 454 58 488T157 537Q201 547 221 560T242 594Q242 614 226 625T186 636Q162 636 144 624T124 580L30 587Q35 648 78 680T186 712Q251 712 293 680T336 593Q336 539 299 512T197 471Q157 463 142 453T126
426H334V350H26Z" />
<glyph unicode="&#xb3;" horiz-adv-x="363" d="M181 338Q115 338 70 370T20 460L113 470Q116 445 135 430T181 414Q210 414 226 429T243 465Q243 487 227 498T179 510H113V576L198 612V626H27V700H335V622L229 572V558Q280 556 308 533T337 461Q337 425 317 398T261
354T181 338Z" />
<glyph unicode="&#xb4;" horiz-adv-x="296" d="M40 552L114 700H256L150 552H40Z" />
<glyph unicode="&#xb5;" horiz-adv-x="624" d="M66 -200V496H192V208Q192 156 219 127T298 98Q356 98 386 134T416 236V496H542V134Q542 104 570 104H610V0H526Q489 0 466 18T440 70V74H422Q409 39 376 16T289 -8Q257 -8 238 0T206 18H188V-200H66Z" />
<glyph unicode="&#xb6;" horiz-adv-x="614" d="M254 0V284H228Q166 284 118 310T43 382T16 486V498Q16 558 44 603T121 674T234 700H548V0H440V598H362V0H254ZM222 386H254V598H222Q179 598 152 570T124 495V489Q124 442 153 414T222 386Z" />
<glyph unicode="&#xb7;" horiz-adv-x="218" d="M110 191Q69 191 42 217T14 286Q14 328 41 354T110 381Q150 381 177 355T204 286Q204 244 177 218T110 191Z" />
<glyph unicode="&#xb8;" horiz-adv-x="328" d="M155 -214Q123 -214 93 -208T40 -195L60 -120Q79 -126 100 -131T149 -136Q169 -136 182 -129T195 -107Q195 -93 184 -87T146 -80H108L115 20H201L197 -39Q235 -39 261 -60T288 -122Q288 -154 269 -174T220 -204T155 -214Z" />
<glyph unicode="&#xb9;" horiz-adv-x="262" d="M130 350V622H116L101 544H16L54 700H222V350H130Z" />
<glyph unicode="&#xba;" horiz-adv-x="436" d="M218 340Q134 340 83 388T32 525Q32 614 83 662T218 710Q302 710 353 662T404 525Q404 437 353 389T218 340ZM218 416Q260 416 285 443T310 525Q310 579 285 606T218 634Q176 634 151 607T126 525Q126 471 151 444T218 416Z" />
<glyph unicode="&#xbb;" horiz-adv-x="720" d="M368 6V142L549 239V257L368 354V490H374L668 316V180L374 6H368ZM68 6V142L249 239V257L68 354V490H74L368 316V180L74 6H68Z" />
<glyph unicode="&#xbc;" horiz-adv-x="830" d="M130 350V622H116L101 544H16L54 700H222V350H130ZM145 -10L78 45L617 710L684 655L145 -10ZM660 0V71H458V159L591 350H754V147H814V71H754V0H660ZM558 147H660V286H646L558 159V147Z" />
<glyph unicode="&#xbd;" horiz-adv-x="824" d="M130 350V622H116L101 544H16L54 700H222V350H130ZM145 -10L78 45L617 710L684 655L145 -10ZM486 0V44Q486 104 518 138T617 187Q661 197 681 210T702 244Q702 264 686 275T646 286Q622 286 604 274T584 230L490
237Q495 298 538 330T646 362Q711 362 753 330T796 243Q796 189 759 162T657 121Q617 113 602 103T586 76H794V0H486Z" />
<glyph unicode="&#xbe;" horiz-adv-x="891" d="M181 338Q115 338 70 370T20 460L113 470Q116 445 135 430T181 414Q210 414 226 429T243 465Q243 487 227 498T179 510H113V576L198 612V626H27V700H335V622L229 572V558Q280 556 308 533T337 461Q337 425 317 398T261
354T181 338ZM206 -10L139 45L678 710L745 655L206 -10ZM721 0V71H519V159L652 350H815V147H875V71H815V0H721ZM619 147H721V286H707L619 159V147Z" />
<glyph unicode="&#xbf;" horiz-adv-x="578" d="M288 -214Q217 -214 162 -188T74 -116T42 -10Q42 50 64 88T119 151T188 191L205 199Q223 207 230 218T237 252V266H369V246Q369 195 349 162T282 107L265 99Q220 78 196 55T172 -10Q172 -39 186 -59T227 -91T288
-102Q324 -102 352 -90T397 -54T414 6V28H544V8Q544 -61 510 -110T418 -187T288 -214ZM299 510Q340 510 367 484T394 415Q394 373 367 347T299 320Q259 320 232 346T204 415Q204 457 231 483T299 510Z" />
<glyph unicode="&#xc0;" horiz-adv-x="634" d="M18 0L202 700H432L616 0H480L442 154H192L154 0H18ZM223 276H411L326 617H308L223 276ZM283 758L179 888H325L395 758H283Z" />
<glyph unicode="&#xc1;" horiz-adv-x="634" d="M18 0L202 700H432L616 0H480L442 154H192L154 0H18ZM223 276H411L326 617H308L223 276ZM239 758L309 888H455L351 758H239Z" />
<glyph unicode="&#xc2;" horiz-adv-x="634" d="M18 0L202 700H432L616 0H480L442 154H192L154 0H18ZM223 276H411L326 617H308L223 276ZM125 758L239 888H395L509 758H375L326 824H308L259 758H125Z" />
<glyph unicode="&#xc3;" horiz-adv-x="634" d="M18 0L202 700H432L616 0H480L442 154H192L154 0H18ZM223 276H411L326 617H308L223 276ZM200 746L136 797L168 840Q186 864 206 877T255 890Q279 890 294 883T326 862Q336 854 346 846T372 837Q388 837 398 847T417
868L434 890L498 839L466 796Q448 772 428 759T379 746Q355 746 340 753T308 774Q298 782 288 790T262 799Q246 799 236 789T217 768L200 746Z" />
<glyph unicode="&#xc4;" horiz-adv-x="634" d="M18 0L202 700H432L616 0H480L442 154H192L154 0H18ZM223 276H411L326 617H308L223 276ZM428 754Q394 754 371 775T347 834Q347 871 370 892T428 914Q463 914 486 893T509 834Q509 797 486 776T428 754ZM206 754Q172
754 149 775T125 834Q125 871 148 892T206 914Q241 914 264 893T287 834Q287 797 264 776T206 754Z" />
<glyph unicode="&#xc5;" horiz-adv-x="634" d="M18 0L202 700H432L616 0H480L442 154H192L154 0H18ZM223 276H411L326 617H308L223 276ZM317 748Q274 748 244 776T213 848Q213 891 243 919T317 948Q361 948 391 920T421 848Q421 802 390 775T317 748ZM317 818Q331
818 339 826T347 848Q347 861 339 869T317 878Q304 878 296 870T287 848Q287 835 295 827T317 818Z" />
<glyph unicode="&#xc6;" horiz-adv-x="821" d="M375 0V700H783V580H505V413H755V293H505V120H789V0H375ZM18 0L252 700H375V630H357L242 276H375V154H203L153 0H18Z" />
<glyph unicode="&#xc7;" horiz-adv-x="644" d="M332 -14Q202 -14 126 58T50 266V434Q50 569 126 641T332 714Q461 714 531 644T602 450V444H472V454Q472 516 438 556T332 596Q262 596 222 553T182 436V264Q182 191 222 148T332 104Q403 104 437 144T472 246V264H602V250Q602
127 532 57T332 -14ZM332 -214Q300 -214 270 -208T217 -195L237 -120Q256 -126 277 -131T326 -136Q346 -136 359 -129T372 -107Q372 -93 361 -87T323 -80H285L292 20H378L374 -39Q412 -39 438 -60T465 -122Q465 -154 446 -174T397 -204T332 -214Z" />
<glyph unicode="&#xc8;" horiz-adv-x="554" d="M66 0V700H516V580H198V413H488V293H198V120H522V0H66ZM262 758L158 888H304L374 758H262Z" />
<glyph unicode="&#xc9;" horiz-adv-x="554" d="M66 0V700H516V580H198V413H488V293H198V120H522V0H66ZM218 758L288 888H434L330 758H218Z" />
<glyph unicode="&#xca;" horiz-adv-x="554" d="M66 0V700H516V580H198V413H488V293H198V120H522V0H66ZM104 758L218 888H374L488 758H354L305 824H287L238 758H104Z" />
<glyph unicode="&#xcb;" horiz-adv-x="554" d="M66 0V700H516V580H198V413H488V293H198V120H522V0H66ZM407 754Q373 754 350 775T326 834Q326 871 349 892T407 914Q442 914 465 893T488 834Q488 797 465 776T407 754ZM185 754Q151 754 128 775T104 834Q104 871
127 892T185 914Q220 914 243 893T266 834Q266 797 243 776T185 754Z" />
<glyph unicode="&#xcc;" horiz-adv-x="264" d="M66 0V700H198V0H66ZM354 758L250 888H396L466 758H354Z" />
<glyph unicode="&#xcd;" horiz-adv-x="264" d="M66 0V700H198V0H66ZM54 758L124 888H270L166 758H54Z" />
<glyph unicode="&#xce;" horiz-adv-x="264" d="M66 0V700H198V0H66ZM196 758L310 888H466L580 758H446L397 824H379L330 758H196Z" />
<glyph unicode="&#xcf;" horiz-adv-x="264" d="M66 0V700H198V0H66ZM499 754Q465 754 442 775T418 834Q418 871 441 892T499 914Q534 914 557 893T580 834Q580 797 557 776T499 754ZM277 754Q243 754 220 775T196 834Q196 871 219 892T277 914Q312 914 335 893T358
834Q358 797 335 776T277 754Z" />
<glyph unicode="&#xd0;" horiz-adv-x="666" d="M46 0V116H138V584H46V700H334Q475 700 548 629T622 416V284Q622 143 549 72T334 0H46ZM270 120H336Q416 120 453 162T490 280V420Q490 497 453 538T336 580H270V120ZM302 306V396H642V306H302Z" />
<glyph unicode="&#xd1;" horiz-adv-x="670" d="M66 0V700H317L456 90H474V700H604V0H353L214 610H196V0H66ZM217 746L153 797L185 840Q203 864 223 877T272 890Q296 890 311 883T343 862Q353 854 363 846T389 837Q405 837 415 847T434 868L451 890L515 839L483
796Q465 772 445 759T396 746Q372 746 357 753T325 774Q315 782 305 790T279 799Q263 799 253 789T234 768L217 746Z" />
<glyph unicode="&#xd2;" horiz-adv-x="676" d="M338 -14Q206 -14 128 58T50 266V434Q50 569 128 641T338 714Q470 714 548 642T626 434V266Q626 131 548 59T338 -14ZM338 104Q412 104 453 147T494 262V438Q494 510 453 553T338 596Q265 596 224 553T182 438V262Q182
190 223 147T338 104ZM304 758L200 888H346L416 758H304Z" />
<glyph unicode="&#xd3;" horiz-adv-x="676" d="M338 -14Q206 -14 128 58T50 266V434Q50 569 128 641T338 714Q470 714 548 642T626 434V266Q626 131 548 59T338 -14ZM338 104Q412 104 453 147T494 262V438Q494 510 453 553T338 596Q265 596 224 553T182 438V262Q182
190 223 147T338 104ZM260 758L330 888H476L372 758H260Z" />
<glyph unicode="&#xd4;" horiz-adv-x="676" d="M338 -14Q206 -14 128 58T50 266V434Q50 569 128 641T338 714Q470 714 548 642T626 434V266Q626 131 548 59T338 -14ZM338 104Q412 104 453 147T494 262V438Q494 510 453 553T338 596Q265 596 224 553T182 438V262Q182
190 223 147T338 104ZM146 758L260 888H416L530 758H396L347 824H329L280 758H146Z" />
<glyph unicode="&#xd5;" horiz-adv-x="676" d="M338 -14Q206 -14 128 58T50 266V434Q50 569 128 641T338 714Q470 714 548 642T626 434V266Q626 131 548 59T338 -14ZM338 104Q412 104 453 147T494 262V438Q494 510 453 553T338 596Q265 596 224 553T182 438V262Q182
190 223 147T338 104ZM221 746L157 797L189 840Q207 864 227 877T276 890Q300 890 315 883T347 862Q357 854 367 846T393 837Q409 837 419 847T438 868L455 890L519 839L487 796Q469 772 449 759T400 746Q376 746 361 753T329 774Q319 782 309 790T283 799Q267
799 257 789T238 768L221 746Z" />
<glyph unicode="&#xd6;" horiz-adv-x="676" d="M338 -14Q206 -14 128 58T50 266V434Q50 569 128 641T338 714Q470 714 548 642T626 434V266Q626 131 548 59T338 -14ZM338 104Q412 104 453 147T494 262V438Q494 510 453 553T338 596Q265 596 224 553T182 438V262Q182
190 223 147T338 104ZM449 754Q415 754 392 775T368 834Q368 871 391 892T449 914Q484 914 507 893T530 834Q530 797 507 776T449 754ZM227 754Q193 754 170 775T146 834Q146 871 169 892T227 914Q262 914 285 893T308 834Q308 797 285 776T227 754Z" />
<glyph unicode="&#xd7;" horiz-adv-x="620" d="M177 138L96 219L228 350L96 481L177 562L310 431L443 562L524 481L392 350L524 219L443 138L310 269L177 138Z" />
<glyph unicode="&#xd8;" horiz-adv-x="676" d="M338 -14Q206 -14 128 58T50 266V434Q50 569 128 641T338 714Q470 714 548 642T626 434V266Q626 131 548 59T338 -14ZM338 104Q412 104 453 147T494 262V438Q494 510 453 553T338 596Q265 596 224 553T182 438V262Q182
190 223 147T338 104ZM207 -93L124 -59L470 781L553 747L207 -93Z" />
<glyph unicode="&#xd9;" horiz-adv-x="672" d="M336 -14Q250 -14 189 17T95 107T62 246V700H194V242Q194 178 230 141T336 104Q405 104 441 141T478 242V700H610V246Q610 166 578 108T484 18T336 -14ZM302 758L198 888H344L414 758H302Z" />
<glyph unicode="&#xda;" horiz-adv-x="672" d="M336 -14Q250 -14 189 17T95 107T62 246V700H194V242Q194 178 230 141T336 104Q405 104 441 141T478 242V700H610V246Q610 166 578 108T484 18T336 -14ZM258 758L328 888H474L370 758H258Z" />
<glyph unicode="&#xdb;" horiz-adv-x="672" d="M336 -14Q250 -14 189 17T95 107T62 246V700H194V242Q194 178 230 141T336 104Q405 104 441 141T478 242V700H610V246Q610 166 578 108T484 18T336 -14ZM144 758L258 888H414L528 758H394L345 824H327L278 758H144Z" />
<glyph unicode="&#xdc;" horiz-adv-x="672" d="M336 -14Q250 -14 189 17T95 107T62 246V700H194V242Q194 178 230 141T336 104Q405 104 441 141T478 242V700H610V246Q610 166 578 108T484 18T336 -14ZM447 754Q413 754 390 775T366 834Q366 871 389 892T447 914Q482
914 505 893T528 834Q528 797 505 776T447 754ZM225 754Q191 754 168 775T144 834Q144 871 167 892T225 914Q260 914 283 893T306 834Q306 797 283 776T225 754Z" />
<glyph unicode="&#xdd;" horiz-adv-x="624" d="M246 0V241L8 700H155L303 400H321L469 700H616L378 241V0H246ZM234 758L304 888H450L346 758H234Z" />
<glyph unicode="&#xde;" horiz-adv-x="604" d="M198 138V258H341Q388 258 417 284T446 355V365Q446 410 417 436T341 462H198V582H354Q420 582 470 556T549 481T578 367V353Q578 288 549 240T469 165T354 138H198ZM66 0V700H198V0H66Z" />
<glyph unicode="&#xdf;" horiz-adv-x="651" d="M426 -14Q363 -14 320 7T253 61T219 127L333 164Q341 130 363 109T426 88Q462 88 482 108T503 159Q503 179 494 192T468 215T427 233L385 248Q341 264 321 289T300 347Q300 382 316 404T365 450Q389 467 408 489T428
543Q428 572 403 590T336 608Q303 608 271 592T217 537T196 434V0H70V430Q70 520 104 583T198 680T336 714Q398 714 447 693T524 633T552 547Q552 504 537 474T498 422T446 382Q438 377 434 372T429 360Q429 346 455 337L480 328Q522 313 555 292T608 239T627 158Q627
109 603 70T534 9T426 -14Z" />
<glyph unicode="&#xe0;" horiz-adv-x="578" d="M224 -14Q171 -14 129 4T63 58T38 145Q38 196 62 230T130 282T230 300H366V328Q366 363 344 385T274 408Q227 408 204 387T174 331L58 370Q70 408 96 439T167 490T276 510Q374 510 431 461T488 319V134Q488 104 516
104H556V0H472Q435 0 411 18T387 66V67H368Q364 55 350 36T306 1T224 -14ZM246 88Q299 88 332 117T366 196V206H239Q204 206 184 191T164 149Q164 122 185 105T246 88ZM247 552L141 700H283L357 552H247Z" />
<glyph unicode="&#xe1;" horiz-adv-x="578" d="M224 -14Q171 -14 129 4T63 58T38 145Q38 196 62 230T130 282T230 300H366V328Q366 363 344 385T274 408Q227 408 204 387T174 331L58 370Q70 408 96 439T167 490T276 510Q374 510 431 461T488 319V134Q488 104 516
104H556V0H472Q435 0 411 18T387 66V67H368Q364 55 350 36T306 1T224 -14ZM246 88Q299 88 332 117T366 196V206H239Q204 206 184 191T164 149Q164 122 185 105T246 88ZM205 552L279 700H421L315 552H205Z" />
<glyph unicode="&#xe2;" horiz-adv-x="578" d="M224 -14Q171 -14 129 4T63 58T38 145Q38 196 62 230T130 282T230 300H366V328Q366 363 344 385T274 408Q227 408 204 387T174 331L58 370Q70 408 96 439T167 490T276 510Q374 510 431 461T488 319V134Q488 104 516
104H556V0H472Q435 0 411 18T387 66V67H368Q364 55 350 36T306 1T224 -14ZM246 88Q299 88 332 117T366 196V206H239Q204 206 184 191T164 149Q164 122 185 105T246 88ZM89 552L206 700H356L473 552H346L290 626H272L216 552H89Z" />
<glyph unicode="&#xe3;" horiz-adv-x="578" d="M224 -14Q171 -14 129 4T63 58T38 145Q38 196 62 230T130 282T230 300H366V328Q366 363 344 385T274 408Q227 408 204 387T174 331L58 370Q70 408 96 439T167 490T276 510Q374 510 431 461T488 319V134Q488 104 516
104H556V0H472Q435 0 411 18T387 66V67H368Q364 55 350 36T306 1T224 -14ZM246 88Q299 88 332 117T366 196V206H239Q204 206 184 191T164 149Q164 122 185 105T246 88ZM169 542L100 586L133 643Q148 669 169 680T216 692Q238 692 254 684T287 661Q296 653 306 645T330
637Q345 637 354 647T371 668L387 692L456 648L423 591Q408 566 387 554T340 542Q318 542 302 550T269 573Q260 581 250 589T226 597Q211 597 202 587T185 566L169 542Z" />
<glyph unicode="&#xe4;" horiz-adv-x="578" d="M224 -14Q171 -14 129 4T63 58T38 145Q38 196 62 230T130 282T230 300H366V328Q366 363 344 385T274 408Q227 408 204 387T174 331L58 370Q70 408 96 439T167 490T276 510Q374 510 431 461T488 319V134Q488 104 516
104H556V0H472Q435 0 411 18T387 66V67H368Q364 55 350 36T306 1T224 -14ZM246 88Q299 88 332 117T366 196V206H239Q204 206 184 191T164 149Q164 122 185 105T246 88ZM384 550Q350 550 327 571T303 630Q303 667 326 688T384 710Q419 710 442 689T465 630Q465 593
442 572T384 550ZM178 550Q144 550 121 571T97 630Q97 667 120 688T178 710Q213 710 236 689T259 630Q259 593 236 572T178 550Z" />
<glyph unicode="&#xe5;" horiz-adv-x="578" d="M224 -14Q171 -14 129 4T63 58T38 145Q38 196 62 230T130 282T230 300H366V328Q366 363 344 385T274 408Q227 408 204 387T174 331L58 370Q70 408 96 439T167 490T276 510Q374 510 431 461T488 319V134Q488 104 516
104H556V0H472Q435 0 411 18T387 66V67H368Q364 55 350 36T306 1T224 -14ZM246 88Q299 88 332 117T366 196V206H239Q204 206 184 191T164 149Q164 122 185 105T246 88ZM281 539Q238 539 208 567T177 639Q177 682 207 710T281 739Q325 739 355 711T385 639Q385 593
354 566T281 539ZM281 609Q295 609 303 617T311 639Q311 652 303 660T281 669Q268 669 260 661T251 639Q251 626 259 618T281 609Z" />
<glyph unicode="&#xe6;" horiz-adv-x="874" d="M615 -14Q544 -14 491 22T408 118T378 252Q378 325 407 383T488 476T607 510Q679 510 729 477T805 389T832 266V205H491Q493 158 525 127T609 96Q660 96 686 117T726 161L819 94Q800 67 774 42T709 2T615 -14ZM250
88Q303 88 335 118T368 198V205H243Q205 205 184 191T162 149Q162 122 184 105T250 88ZM236 -14Q149 -14 94 27T38 144Q38 221 92 260T234 299H368V328Q368 362 343 385T270 408Q224 408 199 386T164 331L52 370Q66 408 93 439T164 490T270 510Q331 510 368 491T430
442H458L436 260L445 75H417Q408 60 388 39T332 2T236 -14ZM492 299H708Q707 346 678 373T602 400Q552 400 523 373T492 299Z" />
<glyph unicode="&#xe7;" horiz-adv-x="586" d="M303 -14Q231 -14 173 16T80 103T46 241V255Q46 336 80 393T172 480T303 510Q374 510 425 485T507 417T549 318L427 292Q423 322 409 346T370 384T306 398Q268 398 238 382T190 333T172 253V243Q172 196 189 164T237
115T306 98Q363 98 392 127T430 205L552 176Q539 123 508 80T425 11T303 -14ZM303 -214Q271 -214 241 -208T188 -195L208 -120Q227 -126 248 -131T297 -136Q317 -136 330 -129T343 -107Q343 -93 332 -87T294 -80H256L263 20H349L345 -39Q383 -39 409 -60T436 -122Q436
-154 417 -174T368 -204T303 -214Z" />
<glyph unicode="&#xe8;" horiz-adv-x="577" d="M296 -14Q222 -14 166 17T78 106T46 242V254Q46 332 77 389T164 478T294 510Q367 510 421 478T505 388T535 254V211H174Q176 160 212 128T300 96Q353 96 378 119T416 170L519 116Q505 90 479 60T408 8T296 -14ZM175
305H407Q403 348 373 374T293 400Q242 400 212 374T175 305ZM260 552L154 700H296L370 552H260Z" />
<glyph unicode="&#xe9;" horiz-adv-x="577" d="M296 -14Q222 -14 166 17T78 106T46 242V254Q46 332 77 389T164 478T294 510Q367 510 421 478T505 388T535 254V211H174Q176 160 212 128T300 96Q353 96 378 119T416 170L519 116Q505 90 479 60T408 8T296 -14ZM175
305H407Q403 348 373 374T293 400Q242 400 212 374T175 305ZM218 552L292 700H434L328 552H218Z" />
<glyph unicode="&#xea;" horiz-adv-x="577" d="M296 -14Q222 -14 166 17T78 106T46 242V254Q46 332 77 389T164 478T294 510Q367 510 421 478T505 388T535 254V211H174Q176 160 212 128T300 96Q353 96 378 119T416 170L519 116Q505 90 479 60T408 8T296 -14ZM175
305H407Q403 348 373 374T293 400Q242 400 212 374T175 305ZM102 552L219 700H369L486 552H359L303 626H285L229 552H102Z" />
<glyph unicode="&#xeb;" horiz-adv-x="577" d="M296 -14Q222 -14 166 17T78 106T46 242V254Q46 332 77 389T164 478T294 510Q367 510 421 478T505 388T535 254V211H174Q176 160 212 128T300 96Q353 96 378 119T416 170L519 116Q505 90 479 60T408 8T296 -14ZM175
305H407Q403 348 373 374T293 400Q242 400 212 374T175 305ZM397 550Q363 550 340 571T316 630Q316 667 339 688T397 710Q432 710 455 689T478 630Q478 593 455 572T397 550ZM191 550Q157 550 134 571T110 630Q110 667 133 688T191 710Q226 710 249 689T272 630Q272
593 249 572T191 550Z" />
<glyph unicode="&#xec;" horiz-adv-x="266" d="M70 0V496H196V0H70ZM355 552L249 700H391L465 552H355Z" />
<glyph unicode="&#xed;" horiz-adv-x="266" d="M70 0V496H196V0H70ZM57 552L131 700H273L167 552H57Z" />
<glyph unicode="&#xee;" horiz-adv-x="266" d="M70 0V496H196V0H70ZM197 552L314 700H464L581 552H454L398 626H380L324 552H197Z" />
<glyph unicode="&#xef;" horiz-adv-x="266" d="M70 0V496H196V0H70ZM492 550Q458 550 435 571T411 630Q411 667 434 688T492 710Q527 710 550 689T573 630Q573 593 550 572T492 550ZM286 550Q252 550 229 571T205 630Q205 667 228 688T286 710Q321 710 344 689T367
630Q367 593 344 572T286 550Z" />
<glyph unicode="&#xf0;" horiz-adv-x="616" d="M307 -14Q230 -15 171 17T79 107T46 242V252Q46 327 77 382T159 468T271 500Q322 501 356 484T413 440H431Q412 519 349 577T188 669L228 770Q340 733 415 663T529 497T568 289Q568 189 535 122T444 21T307 -14ZM306
98Q345 98 375 115T422 165T440 245V249Q440 320 403 358T306 396Q248 396 210 358T172 249V245Q172 175 210 137T306 98ZM282 530L224 573L377 784L436 740L282 530Z" />
<glyph unicode="&#xf1;" horiz-adv-x="616" d="M70 0V496H194V431H212Q224 457 257 480T357 504Q415 504 458 478T526 405T550 296V0H424V286Q424 342 397 370T318 398Q260 398 228 360T196 252V0H70ZM191 542L122 586L155 643Q170 669 191 680T238 692Q260 692
276 684T309 661Q318 653 328 645T352 637Q367 637 376 647T393 668L409 692L478 648L445 591Q430 566 409 554T362 542Q340 542 324 550T291 573Q282 581 272 589T248 597Q233 597 224 587T207 566L191 542Z" />
<glyph unicode="&#xf2;" horiz-adv-x="612" d="M306 -14Q232 -14 173 16T80 103T46 240V256Q46 336 80 393T173 480T306 510Q380 510 439 480T532 393T566 256V240Q566 160 532 103T439 16T306 -14ZM306 98Q364 98 402 135T440 243V253Q440 323 403 360T306 398Q248
398 210 361T172 253V243Q172 173 210 136T306 98ZM272 552L166 700H308L382 552H272Z" />
<glyph unicode="&#xf3;" horiz-adv-x="612" d="M306 -14Q232 -14 173 16T80 103T46 240V256Q46 336 80 393T173 480T306 510Q380 510 439 480T532 393T566 256V240Q566 160 532 103T439 16T306 -14ZM306 98Q364 98 402 135T440 243V253Q440 323 403 360T306 398Q248
398 210 361T172 253V243Q172 173 210 136T306 98ZM230 552L304 700H446L340 552H230Z" />
<glyph unicode="&#xf4;" horiz-adv-x="612" d="M306 -14Q232 -14 173 16T80 103T46 240V256Q46 336 80 393T173 480T306 510Q380 510 439 480T532 393T566 256V240Q566 160 532 103T439 16T306 -14ZM306 98Q364 98 402 135T440 243V253Q440 323 403 360T306 398Q248
398 210 361T172 253V243Q172 173 210 136T306 98ZM114 552L231 700H381L498 552H371L315 626H297L241 552H114Z" />
<glyph unicode="&#xf5;" horiz-adv-x="612" d="M306 -14Q232 -14 173 16T80 103T46 240V256Q46 336 80 393T173 480T306 510Q380 510 439 480T532 393T566 256V240Q566 160 532 103T439 16T306 -14ZM306 98Q364 98 402 135T440 243V253Q440 323 403 360T306 398Q248
398 210 361T172 253V243Q172 173 210 136T306 98ZM194 542L125 586L158 643Q173 669 194 680T241 692Q263 692 279 684T312 661Q321 653 331 645T355 637Q370 637 379 647T396 668L412 692L481 648L448 591Q433 566 412 554T365 542Q343 542 327 550T294 573Q285
581 275 589T251 597Q236 597 227 587T210 566L194 542Z" />
<glyph unicode="&#xf6;" horiz-adv-x="612" d="M306 -14Q232 -14 173 16T80 103T46 240V256Q46 336 80 393T173 480T306 510Q380 510 439 480T532 393T566 256V240Q566 160 532 103T439 16T306 -14ZM306 98Q364 98 402 135T440 243V253Q440 323 403 360T306 398Q248
398 210 361T172 253V243Q172 173 210 136T306 98ZM409 550Q375 550 352 571T328 630Q328 667 351 688T409 710Q444 710 467 689T490 630Q490 593 467 572T409 550ZM203 550Q169 550 146 571T122 630Q122 667 145 688T203 710Q238 710 261 689T284 630Q284 593
261 572T203 550Z" />
<glyph unicode="&#xf7;" horiz-adv-x="620" d="M101 293V407H519V293H101ZM310 73Q274 73 249 98T224 159Q224 194 249 219T310 245Q346 245 371 220T396 159Q396 124 371 99T310 73ZM310 455Q274 455 249 480T224 541Q224 576 249 601T310 627Q346 627 371 602T396
541Q396 506 371 481T310 455Z" />
<glyph unicode="&#xf8;" horiz-adv-x="612" d="M306 -14Q232 -14 173 16T80 103T46 240V256Q46 336 80 393T173 480T306 510Q380 510 439 480T532 393T566 256V240Q566 160 532 103T439 16T306 -14ZM306 98Q364 98 402 135T440 243V253Q440 323 403 360T306 398Q248
398 210 361T172 253V243Q172 173 210 136T306 98ZM148 -71L78 -25L464 563L534 517L148 -71Z" />
<glyph unicode="&#xf9;" horiz-adv-x="616" d="M259 -8Q201 -8 158 18T90 92T66 200V496H192V210Q192 154 219 126T298 98Q356 98 388 136T420 244V496H546V0H422V65H404Q392 40 359 16T259 -8ZM272 552L166 700H308L382 552H272Z" />
<glyph unicode="&#xfa;" horiz-adv-x="616" d="M259 -8Q201 -8 158 18T90 92T66 200V496H192V210Q192 154 219 126T298 98Q356 98 388 136T420 244V496H546V0H422V65H404Q392 40 359 16T259 -8ZM230 552L304 700H446L340 552H230Z" />
<glyph unicode="&#xfb;" horiz-adv-x="616" d="M259 -8Q201 -8 158 18T90 92T66 200V496H192V210Q192 154 219 126T298 98Q356 98 388 136T420 244V496H546V0H422V65H404Q392 40 359 16T259 -8ZM114 552L231 700H381L498 552H371L315 626H297L241 552H114Z" />
<glyph unicode="&#xfc;" horiz-adv-x="616" d="M259 -8Q201 -8 158 18T90 92T66 200V496H192V210Q192 154 219 126T298 98Q356 98 388 136T420 244V496H546V0H422V65H404Q392 40 359 16T259 -8ZM409 550Q375 550 352 571T328 630Q328 667 351 688T409 710Q444
710 467 689T490 630Q490 593 467 572T409 550ZM203 550Q169 550 146 571T122 630Q122 667 145 688T203 710Q238 710 261 689T284 630Q284 593 261 572T203 550Z" />
<glyph unicode="&#xfd;" horiz-adv-x="616" d="M124 -200V-90H394Q422 -90 422 -60V65H404Q396 48 379 31T333 3T259 -8Q201 -8 158 18T90 92T66 200V496H192V210Q192 154 219 126T298 98Q356 98 388 136T420 244V496H546V-88Q546 -139 516 -169T436 -200H124ZM230
552L304 700H446L340 552H230Z" />
<glyph unicode="&#xfe;" horiz-adv-x="638" d="M70 -200V700H196V439H214Q225 457 243 473T292 499T368 510Q428 510 479 481T561 394T592 256V240Q592 159 561 102T479 16T368 -14Q323 -14 293 -4T244 23T214 57H196V-200H70ZM330 96Q389 96 427 133T466 243V253Q466
325 428 362T330 400Q272 400 233 363T194 253V243Q194 171 233 134T330 96Z" />
<glyph unicode="&#xff;" horiz-adv-x="616" d="M124 -200V-90H394Q422 -90 422 -60V65H404Q396 48 379 31T333 3T259 -8Q201 -8 158 18T90 92T66 200V496H192V210Q192 154 219 126T298 98Q356 98 388 136T420 244V496H546V-88Q546 -139 516 -169T436 -200H124ZM409
550Q375 550 352 571T328 630Q328 667 351 688T409 710Q444 710 467 689T490 630Q490 593 467 572T409 550ZM203 550Q169 550 146 571T122 630Q122 667 145 688T203 710Q238 710 261 689T284 630Q284 593 261 572T203 550Z" />
<glyph unicode="&#x2013;" horiz-adv-x="584" d="M68 198V312H516V198H68Z" />
<glyph unicode="&#x2014;" horiz-adv-x="888" d="M68 198V312H820V198H68Z" />
<glyph unicode="&#x2018;" horiz-adv-x="294" d="M215 714V646H176Q130 646 130 600V568H147Q187 568 213 544T240 483Q240 443 214 418T147 393Q106 393 80 418T54 487V602Q54 714 166 714H215Z" />
<glyph unicode="&#x2019;" horiz-adv-x="294" d="M79 393V461H118Q164 461 164 507V539H147Q107 539 81 563T54 624Q54 664 80 689T147 714Q188 714 214 689T240 620V505Q240 393 128 393H79Z" />
<glyph unicode="&#x201a;" horiz-adv-x="294" d="M79 -147V-79H118Q164 -79 164 -33V-1H147Q107 -1 81 23T54 84Q54 124 80 149T147 174Q188 174 214 149T240 80V-35Q240 -147 128 -147H79Z" />
<glyph unicode="&#x201c;" horiz-adv-x="514" d="M435 714V646H396Q350 646 350 600V568H367Q407 568 433 544T460 483Q460 443 434 418T367 393Q326 393 300 418T274 487V602Q274 714 386 714H435ZM215 714V646H176Q130 646 130 600V568H147Q187 568 213 544T240
483Q240 443 214 418T147 393Q106 393 80 418T54 487V602Q54 714 166 714H215Z" />
<glyph unicode="&#x201d;" horiz-adv-x="514" d="M79 393V461H118Q164 461 164 507V539H147Q107 539 81 563T54 624Q54 664 80 689T147 714Q188 714 214 689T240 620V505Q240 393 128 393H79ZM299 393V461H338Q384 461 384 507V539H367Q327 539 301 563T274 624Q274
664 300 689T367 714Q408 714 434 689T460 620V505Q460 393 348 393H299Z" />
<glyph unicode="&#x201e;" horiz-adv-x="514" d="M79 -147V-79H118Q164 -79 164 -33V-1H147Q107 -1 81 23T54 84Q54 124 80 149T147 174Q188 174 214 149T240 80V-35Q240 -147 128 -147H79ZM299 -147V-79H338Q384 -79 384 -33V-1H367Q327 -1 301 23T274 84Q274
124 300 149T367 174Q408 174 434 149T460 80V-35Q460 -147 348 -147H299Z" />
<glyph unicode="&#x2022;" horiz-adv-x="400" d="M200 111Q160 111 128 130T76 182T56 256Q56 296 74 328T126 380T200 399Q242 399 274 381T325 330T344 255Q344 213 325 181T272 130T200 111Z" />
<glyph unicode="&#x2039;" horiz-adv-x="480" d="M406 6L52 176V320L406 490H412V355L178 257V239L412 141V6H406Z" />
<glyph unicode="&#x203a;" horiz-adv-x="480" d="M68 6V141L302 239V257L68 355V490H74L428 320V176L74 6H68Z" />
</font>
</defs>
</svg>
