<svg fill="none" height="28" viewBox="0 0 28 28" width="28" xmlns="http://www.w3.org/2000/svg"><g fill="#4d4d4d"><path d="m20.359 26.5418c-1.3183 0-2.7067-.315-4.1417-.9216-1.4-.595-2.8116-1.4117-4.1883-2.4034-1.3767-1.0033-2.69502-2.135-3.93168-3.36-1.23667-1.2483-2.35667-2.5666-3.34834-3.92-1.00333-1.4-1.80833-2.7883-2.38-4.1533-.60666-1.435-.91-2.835-.91-4.15334 0-.91.16334-1.77333.47834-2.57833.33833-.84.85166-1.59833 1.56333-2.26333.89833-.875 1.925-1.33 3.02167-1.33.455 0 .92166.105 1.31833.29166.455.21.84.525 1.12.945l2.70665 3.815c.245.33834.4317.665.56.99167.1517.35.2334.7.2334 1.03833 0 .44334-.1284.875-.3734 1.28334-.175.315-.4433.6533-.7817.9917l-.7933.8283c.0117.035.0234.0583.035.0817.14.245.42.665.9567 1.295.56.6533 1.1083 1.2366 1.645 1.7966.7.6884 1.26 1.2134 1.7967 1.6567.665.56 1.0966.84 1.3533.9683l-.0233.0584.8516-.84c.3617-.3617.7117-.63 1.05-.805.6417-.3967 1.4584-.4667 2.275-.1284.3034.1284.63.3034.98.5484l3.8734 2.7533c.42.2917.7466.665.9333 1.1083.175.4434.2566.8517.2566 1.26 0 .56-.1283 1.12-.3733 1.645s-.5483.98-.9333 1.4c-.665.735-1.3883 1.26-2.2283 1.5984-.805.3266-1.68.5016-2.6017.5016zm-13.83668-23.3333c-.64167 0-1.23667.28-1.80834.84-.525.50166-.91 1.05-1.14333 1.645-.245.60666-.36167 1.24833-.36167 1.93666 0 1.085.25667 2.26334.77 3.47664.525 1.2367 1.26 2.52 2.19334 3.8034.93333 1.2833 1.995 2.5316 3.16166 3.71 1.16672 1.155 2.42672 2.2283 3.72162 3.1733 1.26.9217 2.5551 1.6683 3.8384 2.205 1.995.8517 3.8617 1.05 5.4017.4083.595-.245 1.1199-.6183 1.5983-1.155.2683-.2916.4783-.6066.6533-.98.14-.2916.21-.595.21-.8983 0-.1867-.035-.3733-.1283-.5833-.0233-.0584-.105-.1984-.3267-.35l-3.8733-2.7534c-.2333-.1633-.4434-.28-.6417-.3616-.3033-.1167-.5016-.1284-.7583.035-.2333.1166-.4434.2916-.6767.525l-.8866.875c-.455.4433-1.155.5483-1.6917.35l-.315-.14c-.4783-.2567-1.0383-.6534-1.6567-1.1784-.5716-.4783-1.155-1.0266-1.9016-1.7616-.5834-.595-1.1434-1.2134-1.7384-1.89-.54832-.6417-.94498-1.19-1.18998-1.645l-.15167-.35c-.07-.2567-.09333-.4084-.09333-.5717 0-.42.15166-.7933.44333-1.085l.87505-.91c.2333-.23334.4083-.455.525-.65334.0933-.15166.1283-.28.1283-.39666 0-.09334-.035-.23334-.0933-.37334-.07-.19833-.1984-.39666-.3617-.63l-2.70668-3.82666c-.11667-.16334-.25667-.28-.43167-.36167-.18667-.08167-.385-.12833-.58333-.12833zm9.75338 14.3033-.1867.7934.315-.8167c-.0467-.0117-.0934 0-.1283.0233z"/><path d="m23.9173 7.875h-5.8333c-.4783 0-.875-.39667-.875-.875s.3967-.875.875-.875h5.8333c.4784 0 .875.39667.875.875s-.3966.875-.875.875z"/><path d="m21 10.7918c-.4783 0-.875-.3966-.875-.87497v-5.83333c0-.47834.3967-.875.875-.875s.875.39666.875.875v5.83333c0 .47837-.3967.87497-.875.87497z"/></g></svg>