<svg fill="none" height="30" viewBox="0 0 30 30" width="30" xmlns="http://www.w3.org/2000/svg"><g fill="#4d4d4d"><path d="m15.0008 10.9376c-.5125 0-.9375-.425-.9375-.9375v-5.23749l-.9.9c-.3625.3625-.9625.3625-1.325 0s-.3625-.9625 0-1.325l2.5-2.5c.2625-.2625.675-.35 1.025-.2.35.1375.575.4875.575.8625v7.49999c0 .5125-.425.9375-.9375.9375z"/><path d="m17.5008 5.9373c-.2375 0-.475-.0875-.6625-.275l-2.5-2.5c-.3625-.3625-.3625-.9625 0-1.325s.9625-.3625 1.325 0l2.5 2.5c.3625.3625.3625.9625 0 1.325-.1875.1875-.425.275-.6625.275z"/><path d="m20 28.4375h-10c-7.1875 0-7.1875-3.8125-7.1875-7.1875v-1.25c0-2.7875 0-5.9375 5.9375-5.9375 1.4875 0 2.0375.3625 2.8125.9375.0375.0375.0875.0625.125.1125l1.275 1.35c1.075 1.1375 3.025 1.1375 4.1 0l1.275-1.35c.0375-.0375.075-.075.125-.1125.775-.5875 1.325-.9375 2.8125-.9375 5.9375 0 5.9375 3.15 5.9375 5.9375v1.25c-.025 4.775-2.4375 7.1875-7.2125 7.1875zm-11.25-12.5c-4.0625 0-4.0625 1.275-4.0625 4.0625v1.25c0 3.425 0 5.3125 5.3125 5.3125h10c3.725 0 5.3125-1.5875 5.3125-5.3125v-1.25c0-2.7875 0-4.0625-4.0625-4.0625-.9 0-1.0875.1125-1.625.5125l-1.2125 1.2875c-.9.95-2.1125 1.475-3.4125 1.475s-2.5125-.525-3.4125-1.475l-1.2125-1.2875c-.5375-.4-.725-.5125-1.625-.5125z"/><path d="m6.25 15.9373c-.5125 0-.9375-.425-.9375-.9375v-2.5c0-2.425 0-5.43752 4.6-5.87502.5-.0625.975.325 1.025.85.05.5125-.325.975-.85 1.025-2.9.2625-2.9 1.4375-2.9 4.00002v2.5c0 .5125-.425.9375-.9375.9375z"/><path d="m23.7498 15.9373c-.5125 0-.9375-.425-.9375-.9375v-2.5c0-2.56251 0-3.73751-2.9-4.01251-.5125-.05-.8875-.5125-.8375-1.025s.5-.9 1.025-.8375c4.6.4375 4.6 3.45001 4.6 5.87501v2.5c-.0125.5125-.4375.9375-.95.9375z"/></g></svg>